<svg width="428" height="92" viewBox="0 0 428 92" fill="none" xmlns="http://www.w3.org/2000/svg">
<g filter="url(#filter0_d_119_48)">
<path d="M4 20C4 8.9543 12.9543 0 24 0H424V64C424 75.0457 415.046 84 404 84H24C12.9543 84 4 75.0457 4 64V20Z" fill="#040B10" shape-rendering="crispEdges"/>
<path d="M4.5 20C4.5 9.23045 13.2304 0.5 24 0.5H423.5V64C423.5 74.7695 414.77 83.5 404 83.5H24C13.2304 83.5 4.5 74.7695 4.5 64V20Z" stroke="url(#paint0_linear_119_48)" shape-rendering="crispEdges"/>
<g filter="url(#filter1_d_119_48)">
<mask id="path-3-outside-1_119_48" maskUnits="userSpaceOnUse" x="171" y="31.5" width="86" height="23" fill="black">
<rect fill="white" x="171" y="31.5" width="86" height="23"/>
<path d="M172.89 52.5V33.18H186.36V35.73H176.16V41.58H185.25V44.1H176.16V49.98H186.36V52.5H172.89ZM189.384 52.5V38.28H192.384L192.534 39.78C193.174 39.28 193.934 38.86 194.814 38.52C195.714 38.16 196.704 37.98 197.784 37.98C199.624 37.98 200.964 38.41 201.804 39.27C202.644 40.13 203.064 41.47 203.064 43.29V52.5H199.824V43.44C199.824 42.34 199.594 41.57 199.134 41.13C198.694 40.69 197.854 40.47 196.614 40.47C195.874 40.47 195.144 40.62 194.424 40.92C193.724 41.22 193.134 41.61 192.654 42.09V52.5H189.384ZM210.976 52.5L205.366 38.28H208.756L212.746 49.32L216.736 38.28H220.096L214.516 52.5H210.976ZM223.455 35.31V32.61H227.025V35.31H223.455ZM223.725 52.5V40.77H221.565L221.865 38.28H226.995V52.5H223.725ZM235.25 52.8C234.35 52.8 233.51 52.64 232.73 52.32C231.97 52 231.36 51.52 230.9 50.88C230.44 50.22 230.21 49.41 230.21 48.45C230.21 47.09 230.67 46 231.59 45.18C232.53 44.34 233.97 43.92 235.91 43.92H240.47V43.29C240.47 42.61 240.36 42.07 240.14 41.67C239.94 41.27 239.56 40.98 239 40.8C238.46 40.62 237.66 40.53 236.6 40.53C234.92 40.53 233.35 40.78 231.89 41.28V38.85C232.53 38.59 233.31 38.38 234.23 38.22C235.15 38.06 236.14 37.98 237.2 37.98C239.28 37.98 240.86 38.4 241.94 39.24C243.04 40.08 243.59 41.45 243.59 43.35V52.5H240.8L240.59 51.06C240.01 51.62 239.29 52.05 238.43 52.35C237.59 52.65 236.53 52.8 235.25 52.8ZM236.12 50.46C237.1 50.46 237.95 50.3 238.67 49.98C239.41 49.64 240.01 49.19 240.47 48.63V46.14H235.97C235.01 46.14 234.31 46.33 233.87 46.71C233.45 47.07 233.24 47.63 233.24 48.39C233.24 49.13 233.49 49.66 233.99 49.98C234.49 50.3 235.2 50.46 236.12 50.46ZM247.216 52.5V38.28H250.216L250.396 39.93C251.076 39.49 251.886 39.09 252.826 38.73C253.766 38.37 254.696 38.12 255.616 37.98V40.47C255.056 40.57 254.446 40.72 253.786 40.92C253.146 41.1 252.536 41.31 251.956 41.55C251.376 41.77 250.886 42 250.486 42.24V52.5H247.216Z"/>
</mask>
<path d="M172.89 52.5V33.18H186.36V35.73H176.16V41.58H185.25V44.1H176.16V49.98H186.36V52.5H172.89ZM189.384 52.5V38.28H192.384L192.534 39.78C193.174 39.28 193.934 38.86 194.814 38.52C195.714 38.16 196.704 37.98 197.784 37.98C199.624 37.98 200.964 38.41 201.804 39.27C202.644 40.13 203.064 41.47 203.064 43.29V52.5H199.824V43.44C199.824 42.34 199.594 41.57 199.134 41.13C198.694 40.69 197.854 40.47 196.614 40.47C195.874 40.47 195.144 40.62 194.424 40.92C193.724 41.22 193.134 41.61 192.654 42.09V52.5H189.384ZM210.976 52.5L205.366 38.28H208.756L212.746 49.32L216.736 38.28H220.096L214.516 52.5H210.976ZM223.455 35.31V32.61H227.025V35.31H223.455ZM223.725 52.5V40.77H221.565L221.865 38.28H226.995V52.5H223.725ZM235.25 52.8C234.35 52.8 233.51 52.64 232.73 52.32C231.97 52 231.36 51.52 230.9 50.88C230.44 50.22 230.21 49.41 230.21 48.45C230.21 47.09 230.67 46 231.59 45.18C232.53 44.34 233.97 43.92 235.91 43.92H240.47V43.29C240.47 42.61 240.36 42.07 240.14 41.67C239.94 41.27 239.56 40.98 239 40.8C238.46 40.62 237.66 40.53 236.6 40.53C234.92 40.53 233.35 40.78 231.89 41.28V38.85C232.53 38.59 233.31 38.38 234.23 38.22C235.15 38.06 236.14 37.98 237.2 37.98C239.28 37.98 240.86 38.4 241.94 39.24C243.04 40.08 243.59 41.45 243.59 43.35V52.5H240.8L240.59 51.06C240.01 51.62 239.29 52.05 238.43 52.35C237.59 52.65 236.53 52.8 235.25 52.8ZM236.12 50.46C237.1 50.46 237.95 50.3 238.67 49.98C239.41 49.64 240.01 49.19 240.47 48.63V46.14H235.97C235.01 46.14 234.31 46.33 233.87 46.71C233.45 47.07 233.24 47.63 233.24 48.39C233.24 49.13 233.49 49.66 233.99 49.98C234.49 50.3 235.2 50.46 236.12 50.46ZM247.216 52.5V38.28H250.216L250.396 39.93C251.076 39.49 251.886 39.09 252.826 38.73C253.766 38.37 254.696 38.12 255.616 37.98V40.47C255.056 40.57 254.446 40.72 253.786 40.92C253.146 41.1 252.536 41.31 251.956 41.55C251.376 41.77 250.886 42 250.486 42.24V52.5H247.216Z" fill="url(#paint1_linear_119_48)"/>
<path d="M172.89 52.5H171.89V53.5H172.89V52.5ZM172.89 33.18V32.18H171.89V33.18H172.89ZM186.36 33.18H187.36V32.18H186.36V33.18ZM186.36 35.73V36.73H187.36V35.73H186.36ZM176.16 35.73V34.73H175.16V35.73H176.16ZM176.16 41.58H175.16V42.58H176.16V41.58ZM185.25 41.58H186.25V40.58H185.25V41.58ZM185.25 44.1V45.1H186.25V44.1H185.25ZM176.16 44.1V43.1H175.16V44.1H176.16ZM176.16 49.98H175.16V50.98H176.16V49.98ZM186.36 49.98H187.36V48.98H186.36V49.98ZM186.36 52.5V53.5H187.36V52.5H186.36ZM173.89 52.5V33.18H171.89V52.5H173.89ZM172.89 34.18H186.36V32.18H172.89V34.18ZM185.36 33.18V35.73H187.36V33.18H185.36ZM186.36 34.73H176.16V36.73H186.36V34.73ZM175.16 35.73V41.58H177.16V35.73H175.16ZM176.16 42.58H185.25V40.58H176.16V42.58ZM184.25 41.58V44.1H186.25V41.58H184.25ZM185.25 43.1H176.16V45.1H185.25V43.1ZM175.16 44.1V49.98H177.16V44.1H175.16ZM176.16 50.98H186.36V48.98H176.16V50.98ZM185.36 49.98V52.5H187.36V49.98H185.36ZM186.36 51.5H172.89V53.5H186.36V51.5ZM189.384 52.5H188.384V53.5H189.384V52.5ZM189.384 38.28V37.28H188.384V38.28H189.384ZM192.384 38.28L193.379 38.1805L193.289 37.28H192.384V38.28ZM192.534 39.78L191.539 39.8795L191.72 41.6853L193.15 40.568L192.534 39.78ZM194.814 38.52L195.175 39.4529L195.186 39.4485L194.814 38.52ZM201.804 39.27L201.089 39.9687L201.804 39.27ZM203.064 52.5V53.5H204.064V52.5H203.064ZM199.824 52.5H198.824V53.5H199.824V52.5ZM199.134 41.13L198.427 41.8371L198.435 41.845L198.443 41.8526L199.134 41.13ZM194.424 40.92L194.04 39.9969L194.03 40.0009L194.424 40.92ZM192.654 42.09L191.947 41.3829L191.654 41.6758V42.09H192.654ZM192.654 52.5V53.5H193.654V52.5H192.654ZM190.384 52.5V38.28H188.384V52.5H190.384ZM189.384 39.28H192.384V37.28H189.384V39.28ZM191.389 38.3795L191.539 39.8795L193.529 39.6805L193.379 38.1805L191.389 38.3795ZM193.15 40.568C193.701 40.1374 194.372 39.7629 195.175 39.4528L194.454 37.5872C193.496 37.9571 192.647 38.4226 191.918 38.992L193.15 40.568ZM195.186 39.4485C195.955 39.1408 196.817 38.98 197.784 38.98V36.98C196.591 36.98 195.474 37.1792 194.443 37.5915L195.186 39.4485ZM197.784 38.98C199.495 38.98 200.517 39.3829 201.089 39.9687L202.52 38.5713C201.412 37.4371 199.753 36.98 197.784 36.98V38.98ZM201.089 39.9687C201.671 40.5652 202.064 41.5995 202.064 43.29H204.064C204.064 41.3405 203.617 39.6948 202.52 38.5713L201.089 39.9687ZM202.064 43.29V52.5H204.064V43.29H202.064ZM203.064 51.5H199.824V53.5H203.064V51.5ZM200.824 52.5V43.44H198.824V52.5H200.824ZM200.824 43.44C200.824 42.2532 200.586 41.1345 199.825 40.4074L198.443 41.8526C198.603 42.0055 198.824 42.4268 198.824 43.44H200.824ZM199.841 40.4229C199.098 39.6794 197.89 39.47 196.614 39.47V41.47C197.818 41.47 198.291 41.7006 198.427 41.8371L199.841 40.4229ZM196.614 39.47C195.735 39.47 194.875 39.6489 194.04 39.9969L194.809 41.8431C195.414 41.5911 196.013 41.47 196.614 41.47V39.47ZM194.03 40.0009C193.227 40.3449 192.527 40.8026 191.947 41.3829L193.361 42.7971C193.741 42.4174 194.221 42.0951 194.818 41.8391L194.03 40.0009ZM191.654 42.09V52.5H193.654V42.09H191.654ZM192.654 51.5H189.384V53.5H192.654V51.5ZM210.976 52.5L210.046 52.867L210.296 53.5H210.976V52.5ZM205.366 38.28V37.28H203.897L204.436 38.647L205.366 38.28ZM208.756 38.28L209.697 37.9401L209.458 37.28H208.756V38.28ZM212.746 49.32L211.806 49.6599L212.746 52.2621L213.687 49.6599L212.746 49.32ZM216.736 38.28V37.28H216.034L215.796 37.9401L216.736 38.28ZM220.096 38.28L221.027 38.6453L221.563 37.28H220.096V38.28ZM214.516 52.5V53.5H215.198L215.447 52.8653L214.516 52.5ZM211.906 52.133L206.296 37.913L204.436 38.647L210.046 52.867L211.906 52.133ZM205.366 39.28H208.756V37.28H205.366V39.28ZM207.816 38.6199L211.806 49.6599L213.687 48.9801L209.697 37.9401L207.816 38.6199ZM213.687 49.6599L217.677 38.6199L215.796 37.9401L211.806 48.9801L213.687 49.6599ZM216.736 39.28H220.096V37.28H216.736V39.28ZM219.165 37.9147L213.585 52.1347L215.447 52.8653L221.027 38.6453L219.165 37.9147ZM214.516 51.5H210.976V53.5H214.516V51.5ZM223.455 35.31H222.455V36.31H223.455V35.31ZM223.455 32.61V31.61H222.455V32.61H223.455ZM227.025 32.61H228.025V31.61H227.025V32.61ZM227.025 35.31V36.31H228.025V35.31H227.025ZM223.725 52.5H222.725V53.5H223.725V52.5ZM223.725 40.77H224.725V39.77H223.725V40.77ZM221.565 40.77L220.572 40.6504L220.438 41.77H221.565V40.77ZM221.865 38.28V37.28H220.978L220.872 38.1604L221.865 38.28ZM226.995 38.28H227.995V37.28H226.995V38.28ZM226.995 52.5V53.5H227.995V52.5H226.995ZM224.455 35.31V32.61H222.455V35.31H224.455ZM223.455 33.61H227.025V31.61H223.455V33.61ZM226.025 32.61V35.31H228.025V32.61H226.025ZM227.025 34.31H223.455V36.31H227.025V34.31ZM224.725 52.5V40.77H222.725V52.5H224.725ZM223.725 39.77H221.565V41.77H223.725V39.77ZM222.558 40.8896L222.858 38.3996L220.872 38.1604L220.572 40.6504L222.558 40.8896ZM221.865 39.28H226.995V37.28H221.865V39.28ZM225.995 38.28V52.5H227.995V38.28H225.995ZM226.995 51.5H223.725V53.5H226.995V51.5ZM232.73 52.32L232.342 53.2417L232.35 53.2452L232.73 52.32ZM230.9 50.88L230.08 51.4518L230.084 51.4577L230.088 51.4636L230.9 50.88ZM231.59 45.18L232.255 45.9265L232.256 45.9257L231.59 45.18ZM240.47 43.92V44.92H241.47V43.92H240.47ZM240.14 41.67L239.245 42.1172L239.254 42.1347L239.264 42.1519L240.14 41.67ZM239 40.8L238.684 41.7487L238.694 41.752L239 40.8ZM231.89 41.28H230.89V42.6795L232.214 42.2261L231.89 41.28ZM231.89 38.85L231.514 37.9235L230.89 38.1769V38.85H231.89ZM234.23 38.22L234.401 39.2052L234.23 38.22ZM241.94 39.24L241.326 40.0294L241.333 40.0348L241.94 39.24ZM243.59 52.5V53.5H244.59V52.5H243.59ZM240.8 52.5L239.81 52.6443L239.935 53.5H240.8V52.5ZM240.59 51.06L241.579 50.9157L241.298 48.9862L239.895 50.3406L240.59 51.06ZM238.43 52.35L238.101 51.4058L238.094 51.4083L238.43 52.35ZM238.67 49.98L239.076 50.8939L239.087 50.8887L238.67 49.98ZM240.47 48.63L241.243 49.2647L241.47 48.9881V48.63H240.47ZM240.47 46.14H241.47V45.14H240.47V46.14ZM233.87 46.71L234.521 47.4693L234.524 47.4668L233.87 46.71ZM233.99 49.98L234.529 49.1377L233.99 49.98ZM235.25 51.8C234.471 51.8 233.761 51.6622 233.109 51.3948L232.35 53.2452C233.259 53.6178 234.229 53.8 235.25 53.8V51.8ZM233.118 51.3984C232.52 51.1464 232.059 50.7797 231.712 50.2964L230.088 51.4636C230.66 52.2603 231.42 52.8536 232.342 53.2416L233.118 51.3984ZM231.72 50.3082C231.398 49.8463 231.21 49.2459 231.21 48.45H229.21C229.21 49.5741 229.481 50.5937 230.08 51.4518L231.72 50.3082ZM231.21 48.45C231.21 47.3421 231.572 46.5359 232.255 45.9265L230.925 44.4335C229.768 45.4641 229.21 46.8379 229.21 48.45H231.21ZM232.256 45.9257C232.936 45.3181 234.088 44.92 235.91 44.92V42.92C233.852 42.92 232.124 43.3619 230.924 44.4343L232.256 45.9257ZM235.91 44.92H240.47V42.92H235.91V44.92ZM241.47 43.92V43.29H239.47V43.92H241.47ZM241.47 43.29C241.47 42.5178 241.348 41.7906 241.016 41.1881L239.264 42.1519C239.372 42.3494 239.47 42.7022 239.47 43.29H241.47ZM241.034 41.2228C240.68 40.5133 240.038 40.0832 239.306 39.848L238.694 41.752C239.082 41.8768 239.2 42.0267 239.245 42.1172L241.034 41.2228ZM239.316 39.8513C238.621 39.6196 237.692 39.53 236.6 39.53V41.53C237.628 41.53 238.299 41.6204 238.684 41.7487L239.316 39.8513ZM236.6 39.53C234.819 39.53 233.139 39.7952 231.566 40.3339L232.214 42.2261C233.561 41.7648 235.02 41.53 236.6 41.53V39.53ZM232.89 41.28V38.85H230.89V41.28H232.89ZM232.266 39.7765C232.822 39.5508 233.529 39.357 234.401 39.2052L234.059 37.2348C233.091 37.403 232.238 37.6292 231.514 37.9235L232.266 39.7765ZM234.401 39.2052C235.258 39.0563 236.19 38.98 237.2 38.98V36.98C236.09 36.98 235.042 37.0637 234.059 37.2348L234.401 39.2052ZM237.2 38.98C239.167 38.98 240.492 39.3807 241.326 40.0294L242.554 38.4506C241.228 37.4193 239.392 36.98 237.2 36.98V38.98ZM241.333 40.0348C242.101 40.6211 242.59 41.6374 242.59 43.35H244.59C244.59 41.2626 243.979 39.5389 242.547 38.4452L241.333 40.0348ZM242.59 43.35V52.5H244.59V43.35H242.59ZM243.59 51.5H240.8V53.5H243.59V51.5ZM241.789 52.3557L241.579 50.9157L239.6 51.2043L239.81 52.6443L241.789 52.3557ZM239.895 50.3406C239.432 50.7878 238.842 51.1472 238.101 51.4058L238.759 53.2942C239.738 52.9528 240.588 52.4522 241.285 51.7794L239.895 50.3406ZM238.094 51.4083C237.397 51.6569 236.461 51.8 235.25 51.8V53.8C236.599 53.8 237.782 53.6431 238.766 53.2917L238.094 51.4083ZM236.12 51.46C237.207 51.46 238.201 51.2827 239.076 50.8938L238.264 49.0662C237.699 49.3173 236.993 49.46 236.12 49.46V51.46ZM239.087 50.8887C239.948 50.4933 240.675 49.9555 241.243 49.2647L239.697 47.9953C239.345 48.4245 238.872 48.7867 238.252 49.0713L239.087 50.8887ZM241.47 48.63V46.14H239.47V48.63H241.47ZM240.47 45.14H235.97V47.14H240.47V45.14ZM235.97 45.14C234.915 45.14 233.924 45.3421 233.216 45.9532L234.524 47.4668C234.696 47.3179 235.105 47.14 235.97 47.14V45.14ZM233.219 45.9507C232.503 46.5643 232.24 47.4524 232.24 48.39H234.24C234.24 47.8075 234.397 47.5757 234.521 47.4693L233.219 45.9507ZM232.24 48.39C232.24 49.3749 232.591 50.272 233.451 50.8223L234.529 49.1377C234.389 49.048 234.24 48.8851 234.24 48.39H232.24ZM233.451 50.8223C234.178 51.2873 235.106 51.46 236.12 51.46V49.46C235.294 49.46 234.802 49.3127 234.529 49.1377L233.451 50.8223ZM247.216 52.5H246.216V53.5H247.216V52.5ZM247.216 38.28V37.28H246.216V38.28H247.216ZM250.216 38.28L251.21 38.1716L251.113 37.28H250.216V38.28ZM250.396 39.93L249.402 40.0384L249.578 41.6505L250.939 40.7696L250.396 39.93ZM252.826 38.73L252.469 37.7961L252.826 38.73ZM255.616 37.98H256.616V36.8163L255.466 36.9914L255.616 37.98ZM255.616 40.47L255.792 41.4544L256.616 41.3072V40.47H255.616ZM253.786 40.92L254.057 41.8827L254.067 41.8799L254.076 41.877L253.786 40.92ZM251.956 41.55L252.311 42.485L252.325 42.4797L252.339 42.474L251.956 41.55ZM250.486 42.24L249.972 41.3825L249.486 41.6738V42.24H250.486ZM250.486 52.5V53.5H251.486V52.5H250.486ZM248.216 52.5V38.28H246.216V52.5H248.216ZM247.216 39.28H250.216V37.28H247.216V39.28ZM249.222 38.3884L249.402 40.0384L251.39 39.8216L251.21 38.1716L249.222 38.3884ZM250.939 40.7696C251.549 40.3752 252.294 40.0047 253.184 39.6639L252.469 37.7961C251.478 38.1753 250.603 38.6048 249.853 39.0904L250.939 40.7696ZM253.184 39.6639C254.062 39.3274 254.923 39.097 255.767 38.9686L255.466 36.9914C254.469 37.143 253.47 37.4126 252.469 37.7961L253.184 39.6639ZM254.616 37.98V40.47H256.616V37.98H254.616ZM255.44 39.4856C254.835 39.5937 254.186 39.7539 253.496 39.963L254.076 41.877C254.706 41.6861 255.278 41.5463 255.792 41.4544L255.44 39.4856ZM253.515 39.9573C252.84 40.1474 252.192 40.3701 251.574 40.626L252.339 42.474C252.88 42.2499 253.453 42.0526 254.057 41.8827L253.515 39.9573ZM251.602 40.615C250.983 40.8496 250.436 41.1039 249.972 41.3825L251.001 43.0975C251.336 42.8961 251.769 42.6904 252.311 42.485L251.602 40.615ZM249.486 42.24V52.5H251.486V42.24H249.486ZM250.486 51.5H247.216V53.5H250.486V51.5Z" fill="black" mask="url(#path-3-outside-1_119_48)"/>
</g>
</g>
<defs>
<filter id="filter0_d_119_48" x="0" y="0" width="428" height="92" filterUnits="userSpaceOnUse" color-interpolation-filters="sRGB">
<feFlood flood-opacity="0" result="BackgroundImageFix"/>
<feColorMatrix in="SourceAlpha" type="matrix" values="0 0 0 0 0 0 0 0 0 0 0 0 0 0 0 0 0 0 127 0" result="hardAlpha"/>
<feOffset dy="4"/>
<feGaussianBlur stdDeviation="2"/>
<feComposite in2="hardAlpha" operator="out"/>
<feColorMatrix type="matrix" values="0 0 0 0 0 0 0 0 0 0 0 0 0 0 0 0 0 0 0.25 0"/>
<feBlend mode="normal" in2="BackgroundImageFix" result="effect1_dropShadow_119_48"/>
<feBlend mode="normal" in="SourceGraphic" in2="effect1_dropShadow_119_48" result="shape"/>
</filter>
<filter id="filter1_d_119_48" x="168.89" y="32.61" width="90.7263" height="28.1901" filterUnits="userSpaceOnUse" color-interpolation-filters="sRGB">
<feFlood flood-opacity="0" result="BackgroundImageFix"/>
<feColorMatrix in="SourceAlpha" type="matrix" values="0 0 0 0 0 0 0 0 0 0 0 0 0 0 0 0 0 0 127 0" result="hardAlpha"/>
<feOffset dy="4"/>
<feGaussianBlur stdDeviation="2"/>
<feComposite in2="hardAlpha" operator="out"/>
<feColorMatrix type="matrix" values="0 0 0 0 0 0 0 0 0 0 0 0 0 0 0 0 0 0 0.25 0"/>
<feBlend mode="normal" in2="BackgroundImageFix" result="effect1_dropShadow_119_48"/>
<feBlend mode="normal" in="SourceGraphic" in2="effect1_dropShadow_119_48" result="shape"/>
</filter>
<linearGradient id="paint0_linear_119_48" x1="4" y1="42" x2="424" y2="42" gradientUnits="userSpaceOnUse">
<stop stop-color="#00D0FF"/>
<stop offset="1" stop-color="#15191B"/>
</linearGradient>
<linearGradient id="paint1_linear_119_48" x1="171" y1="42" x2="257" y2="42" gradientUnits="userSpaceOnUse">
<stop stop-color="#FFFBFB"/>
<stop offset="1" stop-color="#FFFEFE"/>
</linearGradient>
</defs>
</svg>
