<svg width="521" height="118" viewBox="0 0 521 118" fill="none" xmlns="http://www.w3.org/2000/svg">
<g filter="url(#filter0_d_119_45)">
<path d="M4 20C4 8.95431 12.9543 0 24 0H517V90C517 101.046 508.046 110 497 110H24C12.9543 110 4 101.046 4 90V20Z" fill="#040B10" shape-rendering="crispEdges"/>
<path d="M4.5 20C4.5 9.23045 13.2304 0.5 24 0.5H516.5V90C516.5 100.77 507.77 109.5 497 109.5H24C13.2304 109.5 4.5 100.77 4.5 90V20Z" stroke="url(#paint0_linear_119_45)" shape-rendering="crispEdges"/>
<path d="M221.39 65.5V46.18H234.86V48.73H224.66V54.58H233.75V57.1H224.66V62.98H234.86V65.5H221.39ZM237.884 65.5V51.28H240.884L241.034 52.78C241.674 52.28 242.434 51.86 243.314 51.52C244.214 51.16 245.204 50.98 246.284 50.98C248.124 50.98 249.464 51.41 250.304 52.27C251.144 53.13 251.564 54.47 251.564 56.29V65.5H248.324V56.44C248.324 55.34 248.094 54.57 247.634 54.13C247.194 53.69 246.354 53.47 245.114 53.47C244.374 53.47 243.644 53.62 242.924 53.92C242.224 54.22 241.634 54.61 241.154 55.09V65.5H237.884ZM260.658 65.8C259.138 65.8 257.998 65.4 257.238 64.6C256.498 63.78 256.128 62.67 256.128 61.27V53.83H254.028V51.28H256.128V48.01L259.368 47.02V51.28H263.148L262.938 53.83H259.368V61.09C259.368 61.91 259.558 62.49 259.938 62.83C260.318 63.15 260.938 63.31 261.798 63.31C262.338 63.31 262.908 63.21 263.508 63.01V65.32C262.728 65.64 261.778 65.8 260.658 65.8ZM266.009 65.5V51.28H269.009L269.189 52.93C269.869 52.49 270.679 52.09 271.619 51.73C272.559 51.37 273.489 51.12 274.409 50.98V53.47C273.849 53.57 273.239 53.72 272.579 53.92C271.939 54.1 271.329 54.31 270.749 54.55C270.169 54.77 269.679 55 269.279 55.24V65.5H266.009ZM280.322 65.8C279.422 65.8 278.582 65.64 277.802 65.32C277.042 65 276.432 64.52 275.972 63.88C275.512 63.22 275.282 62.41 275.282 61.45C275.282 60.09 275.742 59 276.662 58.18C277.602 57.34 279.042 56.92 280.982 56.92H285.542V56.29C285.542 55.61 285.432 55.07 285.212 54.67C285.012 54.27 284.632 53.98 284.072 53.8C283.532 53.62 282.732 53.53 281.672 53.53C279.992 53.53 278.422 53.78 276.962 54.28V51.85C277.602 51.59 278.382 51.38 279.302 51.22C280.222 51.06 281.212 50.98 282.272 50.98C284.352 50.98 285.932 51.4 287.012 52.24C288.112 53.08 288.662 54.45 288.662 56.35V65.5H285.872L285.662 64.06C285.082 64.62 284.362 65.05 283.502 65.35C282.662 65.65 281.602 65.8 280.322 65.8ZM281.192 63.46C282.172 63.46 283.022 63.3 283.742 62.98C284.482 62.64 285.082 62.19 285.542 61.63V59.14H281.042C280.082 59.14 279.382 59.33 278.942 59.71C278.522 60.07 278.312 60.63 278.312 61.39C278.312 62.13 278.562 62.66 279.062 62.98C279.562 63.3 280.272 63.46 281.192 63.46ZM292.288 65.5V51.28H295.288L295.468 52.93C296.148 52.49 296.958 52.09 297.898 51.73C298.838 51.37 299.768 51.12 300.688 50.98V53.47C300.128 53.57 299.518 53.72 298.858 53.92C298.218 54.1 297.608 54.31 297.028 54.55C296.448 54.77 295.958 55 295.558 55.24V65.5H292.288Z" fill="url(#paint1_linear_119_45)"/>
</g>
<defs>
<filter id="filter0_d_119_45" x="0" y="0" width="521" height="118" filterUnits="userSpaceOnUse" color-interpolation-filters="sRGB">
<feFlood flood-opacity="0" result="BackgroundImageFix"/>
<feColorMatrix in="SourceAlpha" type="matrix" values="0 0 0 0 0 0 0 0 0 0 0 0 0 0 0 0 0 0 127 0" result="hardAlpha"/>
<feOffset dy="4"/>
<feGaussianBlur stdDeviation="2"/>
<feComposite in2="hardAlpha" operator="out"/>
<feColorMatrix type="matrix" values="0 0 0 0 0 0 0 0 0 0 0 0 0 0 0 0 0 0 0.25 0"/>
<feBlend mode="normal" in2="BackgroundImageFix" result="effect1_dropShadow_119_45"/>
<feBlend mode="normal" in="SourceGraphic" in2="effect1_dropShadow_119_45" result="shape"/>
</filter>
<linearGradient id="paint0_linear_119_45" x1="4" y1="55" x2="517" y2="55" gradientUnits="userSpaceOnUse">
<stop stop-color="#00D0FF"/>
<stop offset="1" stop-color="#15191B"/>
</linearGradient>
<linearGradient id="paint1_linear_119_45" x1="219.5" y1="55" x2="301.5" y2="55" gradientUnits="userSpaceOnUse">
<stop stop-color="#FFFBFB"/>
<stop offset="1" stop-color="white"/>
</linearGradient>
</defs>
</svg>
