<svg width="1082" height="282" viewBox="0 0 1082 282" fill="none" xmlns="http://www.w3.org/2000/svg">
<g filter="url(#filter0_d_310_213)">
<rect x="395" y="1" width="212" height="39" fill="url(#paint0_linear_310_213)"/>
</g>
<g filter="url(#filter1_d_310_213)">
<rect x="328" y="40" width="345" height="39" fill="url(#paint1_linear_310_213)"/>
</g>
<g filter="url(#filter2_d_310_213)">
<rect x="266" y="79" width="471" height="39" fill="url(#paint2_linear_310_213)"/>
</g>
<rect x="210" y="118" width="578" height="39" fill="url(#paint3_linear_310_213)"/>
<g filter="url(#filter3_d_310_213)">
<rect x="157" y="157" width="681" height="39" fill="url(#paint4_linear_310_213)"/>
</g>
<g filter="url(#filter4_d_310_213)">
<rect x="109" y="196" width="776" height="39" fill="url(#paint5_linear_310_213)"/>
</g>
<g filter="url(#filter5_d_310_213)">
<rect x="48" y="235" width="892" height="39" fill="url(#paint6_linear_310_213)"/>
</g>
<path d="M358.371 27V17.136L356.499 17.46V15.822L360.315 15.228V27H358.371ZM367.341 27.324C366.117 27.324 365.133 27.09 364.389 26.622C363.645 26.142 363.099 25.458 362.751 24.57C362.415 23.67 362.247 22.596 362.247 21.348C362.247 20.052 362.409 18.948 362.733 18.036C363.069 17.124 363.609 16.428 364.353 15.948C365.097 15.468 366.093 15.228 367.341 15.228C368.589 15.228 369.579 15.468 370.311 15.948C371.055 16.428 371.589 17.124 371.913 18.036C372.249 18.948 372.417 20.052 372.417 21.348C372.417 22.596 372.249 23.67 371.913 24.57C371.577 25.458 371.037 26.142 370.293 26.622C369.549 27.09 368.565 27.324 367.341 27.324ZM367.341 25.65C368.493 25.65 369.297 25.272 369.753 24.516C370.209 23.748 370.437 22.692 370.437 21.348C370.437 19.92 370.215 18.822 369.771 18.054C369.327 17.286 368.517 16.902 367.341 16.902C366.165 16.902 365.349 17.286 364.893 18.054C364.449 18.822 364.227 19.92 364.227 21.348C364.227 22.692 364.455 23.748 364.911 24.516C365.367 25.272 366.177 25.65 367.341 25.65ZM376.527 20.52C375.675 20.52 375.033 20.286 374.601 19.818C374.181 19.338 373.971 18.732 373.971 18C373.971 17.148 374.181 16.476 374.601 15.984C375.033 15.48 375.675 15.228 376.527 15.228C377.379 15.228 378.015 15.48 378.435 15.984C378.855 16.476 379.065 17.148 379.065 18C379.065 18.732 378.855 19.338 378.435 19.818C378.015 20.286 377.379 20.52 376.527 20.52ZM375.735 27L381.873 15.408H383.709L377.571 27H375.735ZM376.527 19.332C376.995 19.332 377.331 19.212 377.535 18.972C377.739 18.732 377.841 18.396 377.841 17.964C377.841 17.436 377.733 17.052 377.517 16.812C377.313 16.56 376.983 16.434 376.527 16.434C376.071 16.434 375.735 16.56 375.519 16.812C375.315 17.052 375.213 17.436 375.213 17.964C375.213 18.396 375.315 18.732 375.519 18.972C375.723 19.212 376.059 19.332 376.527 19.332ZM382.971 27.18C382.119 27.18 381.477 26.946 381.045 26.478C380.625 25.998 380.415 25.392 380.415 24.66C380.415 23.808 380.625 23.136 381.045 22.644C381.477 22.14 382.119 21.888 382.971 21.888C383.823 21.888 384.459 22.14 384.879 22.644C385.299 23.136 385.509 23.808 385.509 24.66C385.509 25.392 385.299 25.998 384.879 26.478C384.459 26.946 383.823 27.18 382.971 27.18ZM382.971 25.992C383.439 25.992 383.775 25.872 383.979 25.632C384.183 25.392 384.285 25.056 384.285 24.624C384.285 24.096 384.177 23.712 383.961 23.472C383.757 23.22 383.427 23.094 382.971 23.094C382.515 23.094 382.179 23.22 381.963 23.472C381.759 23.712 381.657 24.096 381.657 24.624C381.657 25.056 381.759 25.392 381.963 25.632C382.167 25.872 382.503 25.992 382.971 25.992Z" fill="white"/>
<path d="M1022.23 207V195.408H1024.25L1027.92 202.914L1031.58 195.408H1033.59V207H1031.65V198.594L1028.52 205.002H1027.33L1024.18 198.594V207H1022.23ZM1038.77 197.604L1040.12 194.418H1041.85L1040.34 197.604H1038.77ZM1040.18 207.18C1038.69 207.18 1037.54 206.814 1036.72 206.082C1035.9 205.35 1035.5 204.228 1035.5 202.716C1035.5 201.348 1035.84 200.268 1036.54 199.476C1037.24 198.684 1038.29 198.288 1039.71 198.288C1041 198.288 1041.98 198.63 1042.62 199.314C1043.28 199.986 1043.61 200.856 1043.61 201.924V203.508H1037.37C1037.46 204.336 1037.76 204.906 1038.27 205.218C1038.77 205.53 1039.54 205.686 1040.57 205.686C1041 205.686 1041.45 205.644 1041.9 205.56C1042.36 205.476 1042.76 205.368 1043.09 205.236V206.676C1042.71 206.844 1042.26 206.97 1041.76 207.054C1041.27 207.138 1040.74 207.18 1040.18 207.18ZM1037.37 202.23H1041.89V201.636C1041.89 201.048 1041.72 200.592 1041.4 200.268C1041.08 199.932 1040.53 199.764 1039.76 199.764C1038.85 199.764 1038.22 199.962 1037.87 200.358C1037.54 200.754 1037.37 201.378 1037.37 202.23ZM1048.78 207.18C1047.87 207.18 1047.19 206.94 1046.73 206.46C1046.29 205.968 1046.06 205.302 1046.06 204.462V199.998H1044.8V198.468H1046.06V196.506L1048.01 195.912V198.468H1050.28L1050.15 199.998H1048.01V204.354C1048.01 204.846 1048.12 205.194 1048.35 205.398C1048.58 205.59 1048.95 205.686 1049.47 205.686C1049.79 205.686 1050.13 205.626 1050.49 205.506V206.892C1050.02 207.084 1049.45 207.18 1048.78 207.18ZM1056.08 207.18C1054.54 207.18 1053.42 206.796 1052.7 206.028C1051.99 205.26 1051.63 204.162 1051.63 202.734C1051.63 201.306 1051.99 200.208 1052.71 199.44C1053.43 198.672 1054.56 198.288 1056.08 198.288C1057.62 198.288 1058.74 198.672 1059.46 199.44C1060.18 200.208 1060.54 201.306 1060.54 202.734C1060.54 204.162 1060.18 205.26 1059.46 206.028C1058.76 206.796 1057.63 207.18 1056.08 207.18ZM1056.08 205.524C1056.98 205.524 1057.62 205.308 1057.99 204.876C1058.37 204.432 1058.56 203.718 1058.56 202.734C1058.56 201.75 1058.37 201.042 1057.99 200.61C1057.62 200.178 1056.98 199.962 1056.08 199.962C1055.19 199.962 1054.56 200.178 1054.17 200.61C1053.8 201.042 1053.61 201.75 1053.61 202.734C1053.61 203.718 1053.8 204.432 1054.17 204.876C1054.56 205.308 1055.19 205.524 1056.08 205.524ZM1065.98 207.18C1065.21 207.18 1064.53 207.048 1063.95 206.784C1063.36 206.52 1062.9 206.082 1062.58 205.47C1062.25 204.858 1062.09 204.036 1062.09 203.004C1062.09 201.984 1062.27 201.126 1062.61 200.43C1062.96 199.722 1063.44 199.188 1064.05 198.828C1064.68 198.468 1065.38 198.288 1066.16 198.288C1066.68 198.288 1067.13 198.348 1067.53 198.468C1067.94 198.588 1068.33 198.774 1068.7 199.026V194.868H1070.66V207H1068.99L1068.86 206.154C1068.48 206.502 1068.06 206.76 1067.6 206.928C1067.14 207.096 1066.6 207.18 1065.98 207.18ZM1066.5 205.704C1067.38 205.704 1068.11 205.404 1068.7 204.804V200.538C1068.13 200.034 1067.43 199.782 1066.57 199.782C1065.75 199.782 1065.12 200.058 1064.7 200.61C1064.28 201.162 1064.07 201.966 1064.07 203.022C1064.07 204.042 1064.26 204.744 1064.65 205.128C1065.04 205.512 1065.66 205.704 1066.5 205.704ZM1076.84 207.18C1075.3 207.18 1074.18 206.796 1073.46 206.028C1072.75 205.26 1072.39 204.162 1072.39 202.734C1072.39 201.306 1072.75 200.208 1073.47 199.44C1074.19 198.672 1075.32 198.288 1076.84 198.288C1078.38 198.288 1079.5 198.672 1080.22 199.44C1080.94 200.208 1081.3 201.306 1081.3 202.734C1081.3 204.162 1080.94 205.26 1080.22 206.028C1079.52 206.796 1078.39 207.18 1076.84 207.18ZM1076.84 205.524C1077.74 205.524 1078.38 205.308 1078.75 204.876C1079.13 204.432 1079.32 203.718 1079.32 202.734C1079.32 201.75 1079.13 201.042 1078.75 200.61C1078.38 200.178 1077.74 199.962 1076.84 199.962C1075.95 199.962 1075.32 200.178 1074.93 200.61C1074.56 201.042 1074.37 201.75 1074.37 202.734C1074.37 203.718 1074.56 204.432 1074.93 204.876C1075.32 205.308 1075.95 205.524 1076.84 205.524Z" fill="white"/>
<path d="M1030.42 234L1034.85 222.408H1037.04L1041.43 234H1039.42L1038.27 231.012H1033.6L1032.45 234H1030.42ZM1033.91 229.5H1037.94L1035.93 224.19L1033.91 229.5ZM1045.64 234.18C1044.72 234.18 1044.04 233.94 1043.58 233.46C1043.14 232.968 1042.92 232.302 1042.92 231.462V226.998H1041.66V225.468H1042.92V223.506L1044.86 222.912V225.468H1047.13L1047 226.998H1044.86V231.354C1044.86 231.846 1044.98 232.194 1045.2 232.398C1045.43 232.59 1045.8 232.686 1046.32 232.686C1046.64 232.686 1046.99 232.626 1047.35 232.506V233.892C1046.88 234.084 1046.31 234.18 1045.64 234.18ZM1049.57 223.686V222.066H1051.71V223.686H1049.57ZM1049.73 234V226.962H1048.43L1048.61 225.468H1051.69V234H1049.73ZM1056.63 234L1053.27 225.468H1055.3L1057.7 232.092L1060.09 225.468H1062.11L1058.76 234H1056.63ZM1067.14 234.18C1065.6 234.18 1064.47 233.796 1063.75 233.028C1063.04 232.26 1062.69 231.162 1062.69 229.734C1062.69 228.306 1063.05 227.208 1063.77 226.44C1064.49 225.672 1065.61 225.288 1067.14 225.288C1068.67 225.288 1069.8 225.672 1070.52 226.44C1071.24 227.208 1071.6 228.306 1071.6 229.734C1071.6 231.162 1071.24 232.26 1070.52 233.028C1069.81 233.796 1068.68 234.18 1067.14 234.18ZM1067.14 232.524C1068.04 232.524 1068.67 232.308 1069.04 231.876C1069.43 231.432 1069.62 230.718 1069.62 229.734C1069.62 228.75 1069.43 228.042 1069.04 227.61C1068.67 227.178 1068.04 226.962 1067.14 226.962C1066.25 226.962 1065.61 227.178 1065.23 227.61C1064.86 228.042 1064.67 228.75 1064.67 229.734C1064.67 230.718 1064.86 231.432 1065.23 231.876C1065.61 232.308 1066.25 232.524 1067.14 232.524Z" fill="#00D0FF"/>
<path d="M874.645 60V48.408H876.661L880.333 55.914L883.987 48.408H886.003V60H884.059V51.594L880.927 58.002H879.739L876.589 51.594V60H874.645ZM891.184 50.604L892.534 47.418H894.262L892.75 50.604H891.184ZM892.588 60.18C891.1 60.18 889.948 59.814 889.132 59.082C888.316 58.35 887.908 57.228 887.908 55.716C887.908 54.348 888.256 53.268 888.952 52.476C889.648 51.684 890.704 51.288 892.12 51.288C893.416 51.288 894.388 51.63 895.036 52.314C895.696 52.986 896.026 53.856 896.026 54.924V56.508H889.78C889.876 57.336 890.176 57.906 890.68 58.218C891.184 58.53 891.952 58.686 892.984 58.686C893.416 58.686 893.86 58.644 894.316 58.56C894.772 58.476 895.168 58.368 895.504 58.236V59.676C895.12 59.844 894.676 59.97 894.172 60.054C893.68 60.138 893.152 60.18 892.588 60.18ZM889.78 55.23H894.298V54.636C894.298 54.048 894.136 53.592 893.812 53.268C893.488 52.932 892.942 52.764 892.174 52.764C891.262 52.764 890.632 52.962 890.284 53.358C889.948 53.754 889.78 54.378 889.78 55.23ZM901.194 60.18C900.282 60.18 899.598 59.94 899.142 59.46C898.698 58.968 898.476 58.302 898.476 57.462V52.998H897.216V51.468H898.476V49.506L900.42 48.912V51.468H902.688L902.562 52.998H900.42V57.354C900.42 57.846 900.534 58.194 900.762 58.398C900.99 58.59 901.362 58.686 901.878 58.686C902.202 58.686 902.544 58.626 902.904 58.506V59.892C902.436 60.084 901.866 60.18 901.194 60.18ZM908.491 60.18C906.955 60.18 905.827 59.796 905.107 59.028C904.399 58.26 904.045 57.162 904.045 55.734C904.045 54.306 904.405 53.208 905.125 52.44C905.845 51.672 906.967 51.288 908.491 51.288C910.027 51.288 911.155 51.672 911.875 52.44C912.595 53.208 912.955 54.306 912.955 55.734C912.955 57.162 912.595 58.26 911.875 59.028C911.167 59.796 910.039 60.18 908.491 60.18ZM908.491 58.524C909.391 58.524 910.027 58.308 910.399 57.876C910.783 57.432 910.975 56.718 910.975 55.734C910.975 54.75 910.783 54.042 910.399 53.61C910.027 53.178 909.391 52.962 908.491 52.962C907.603 52.962 906.967 53.178 906.583 53.61C906.211 54.042 906.025 54.75 906.025 55.734C906.025 56.718 906.211 57.432 906.583 57.876C906.967 58.308 907.603 58.524 908.491 58.524ZM918.391 60.18C917.623 60.18 916.945 60.048 916.357 59.784C915.769 59.52 915.313 59.082 914.989 58.47C914.665 57.858 914.503 57.036 914.503 56.004C914.503 54.984 914.677 54.126 915.025 53.43C915.373 52.722 915.853 52.188 916.465 51.828C917.089 51.468 917.791 51.288 918.571 51.288C919.087 51.288 919.543 51.348 919.939 51.468C920.347 51.588 920.737 51.774 921.109 52.026V47.868H923.071V60H921.397L921.271 59.154C920.887 59.502 920.467 59.76 920.011 59.928C919.555 60.096 919.015 60.18 918.391 60.18ZM918.913 58.704C919.789 58.704 920.521 58.404 921.109 57.804V53.538C920.545 53.034 919.837 52.782 918.985 52.782C918.157 52.782 917.533 53.058 917.113 53.61C916.693 54.162 916.483 54.966 916.483 56.022C916.483 57.042 916.675 57.744 917.059 58.128C917.455 58.512 918.073 58.704 918.913 58.704ZM929.25 60.18C927.714 60.18 926.586 59.796 925.866 59.028C925.158 58.26 924.804 57.162 924.804 55.734C924.804 54.306 925.164 53.208 925.884 52.44C926.604 51.672 927.726 51.288 929.25 51.288C930.786 51.288 931.914 51.672 932.634 52.44C933.354 53.208 933.714 54.306 933.714 55.734C933.714 57.162 933.354 58.26 932.634 59.028C931.926 59.796 930.798 60.18 929.25 60.18ZM929.25 58.524C930.15 58.524 930.786 58.308 931.158 57.876C931.542 57.432 931.734 56.718 931.734 55.734C931.734 54.75 931.542 54.042 931.158 53.61C930.786 53.178 930.15 52.962 929.25 52.962C928.362 52.962 927.726 53.178 927.342 53.61C926.97 54.042 926.784 54.75 926.784 55.734C926.784 56.718 926.97 57.432 927.342 57.876C927.726 58.308 928.362 58.524 929.25 58.524Z" fill="white"/>
<path d="M874.627 87V75.408H879.793C880.681 75.408 881.413 75.576 881.989 75.912C882.565 76.248 882.991 76.71 883.267 77.298C883.543 77.874 883.681 78.534 883.681 79.278C883.681 80.43 883.321 81.354 882.601 82.05C881.893 82.746 880.933 83.094 879.721 83.094H876.589V87H874.627ZM876.589 81.546H879.361C880.141 81.546 880.729 81.342 881.125 80.934C881.521 80.526 881.719 79.974 881.719 79.278C881.719 78.534 881.527 77.958 881.143 77.55C880.771 77.142 880.207 76.938 879.451 76.938H876.589V81.546ZM887.557 87.18C887.017 87.18 886.513 87.084 886.045 86.892C885.589 86.7 885.223 86.412 884.947 86.028C884.671 85.632 884.533 85.146 884.533 84.57C884.533 83.754 884.809 83.1 885.361 82.608C885.925 82.104 886.789 81.852 887.953 81.852H890.689V81.474C890.689 81.066 890.623 80.742 890.491 80.502C890.371 80.262 890.143 80.088 889.807 79.98C889.483 79.872 889.003 79.818 888.367 79.818C887.359 79.818 886.417 79.968 885.541 80.268V78.81C885.925 78.654 886.393 78.528 886.945 78.432C887.497 78.336 888.091 78.288 888.727 78.288C889.975 78.288 890.923 78.54 891.571 79.044C892.231 79.548 892.561 80.37 892.561 81.51V87H890.887L890.761 86.136C890.413 86.472 889.981 86.73 889.465 86.91C888.961 87.09 888.325 87.18 887.557 87.18ZM888.079 85.776C888.667 85.776 889.177 85.68 889.609 85.488C890.053 85.284 890.413 85.014 890.689 84.678V83.184H887.989C887.413 83.184 886.993 83.298 886.729 83.526C886.477 83.742 886.351 84.078 886.351 84.534C886.351 84.978 886.501 85.296 886.801 85.488C887.101 85.68 887.527 85.776 888.079 85.776ZM897.581 87.18C896.993 87.18 896.429 87.138 895.889 87.054C895.361 86.97 894.923 86.868 894.575 86.748V85.092C894.983 85.248 895.433 85.368 895.925 85.452C896.417 85.536 896.885 85.578 897.329 85.578C898.001 85.578 898.481 85.518 898.769 85.398C899.057 85.278 899.201 85.044 899.201 84.696C899.201 84.444 899.111 84.246 898.931 84.102C898.763 83.958 898.505 83.826 898.157 83.706C897.821 83.586 897.389 83.442 896.861 83.274C896.357 83.106 895.919 82.926 895.547 82.734C895.175 82.53 894.887 82.272 894.683 81.96C894.479 81.648 894.377 81.24 894.377 80.736C894.377 79.956 894.659 79.356 895.223 78.936C895.787 78.504 896.693 78.288 897.941 78.288C898.433 78.288 898.901 78.324 899.345 78.396C899.789 78.468 900.167 78.558 900.479 78.666V80.304C900.143 80.172 899.771 80.07 899.363 79.998C898.967 79.926 898.595 79.89 898.247 79.89C897.623 79.89 897.149 79.944 896.825 80.052C896.513 80.16 896.357 80.376 896.357 80.7C896.357 81.036 896.519 81.276 896.843 81.42C897.179 81.552 897.713 81.738 898.445 81.978C899.117 82.182 899.651 82.398 900.047 82.626C900.443 82.854 900.725 83.13 900.893 83.454C901.073 83.766 901.163 84.174 901.163 84.678C901.163 85.518 900.857 86.148 900.245 86.568C899.633 86.976 898.745 87.18 897.581 87.18ZM905.473 87.18C904.885 87.18 904.321 87.138 903.781 87.054C903.253 86.97 902.815 86.868 902.467 86.748V85.092C902.875 85.248 903.325 85.368 903.817 85.452C904.309 85.536 904.777 85.578 905.221 85.578C905.893 85.578 906.373 85.518 906.661 85.398C906.949 85.278 907.093 85.044 907.093 84.696C907.093 84.444 907.003 84.246 906.823 84.102C906.655 83.958 906.397 83.826 906.049 83.706C905.713 83.586 905.281 83.442 904.753 83.274C904.249 83.106 903.811 82.926 903.439 82.734C903.067 82.53 902.779 82.272 902.575 81.96C902.371 81.648 902.269 81.24 902.269 80.736C902.269 79.956 902.551 79.356 903.115 78.936C903.679 78.504 904.585 78.288 905.833 78.288C906.325 78.288 906.793 78.324 907.237 78.396C907.681 78.468 908.059 78.558 908.371 78.666V80.304C908.035 80.172 907.663 80.07 907.255 79.998C906.859 79.926 906.487 79.89 906.139 79.89C905.515 79.89 905.041 79.944 904.717 80.052C904.405 80.16 904.249 80.376 904.249 80.7C904.249 81.036 904.411 81.276 904.735 81.42C905.071 81.552 905.605 81.738 906.337 81.978C907.009 82.182 907.543 82.398 907.939 82.626C908.335 82.854 908.617 83.13 908.785 83.454C908.965 83.766 909.055 84.174 909.055 84.678C909.055 85.518 908.749 86.148 908.137 86.568C907.525 86.976 906.637 87.18 905.473 87.18ZM911.699 76.686V75.066H913.841V76.686H911.699ZM911.861 87V79.962H910.565L910.745 78.468H913.823V87H911.861ZM918.766 87L915.4 78.468H917.434L919.828 85.092L922.222 78.468H924.238L920.89 87H918.766ZM929.268 87.18C927.732 87.18 926.604 86.796 925.884 86.028C925.176 85.26 924.822 84.162 924.822 82.734C924.822 81.306 925.182 80.208 925.902 79.44C926.622 78.672 927.744 78.288 929.268 78.288C930.804 78.288 931.932 78.672 932.652 79.44C933.372 80.208 933.732 81.306 933.732 82.734C933.732 84.162 933.372 85.26 932.652 86.028C931.944 86.796 930.816 87.18 929.268 87.18ZM929.268 85.524C930.168 85.524 930.804 85.308 931.176 84.876C931.56 84.432 931.752 83.718 931.752 82.734C931.752 81.75 931.56 81.042 931.176 80.61C930.804 80.178 930.168 79.962 929.268 79.962C928.38 79.962 927.744 80.178 927.36 80.61C926.988 81.042 926.802 81.75 926.802 82.734C926.802 83.718 926.988 84.432 927.36 84.876C927.744 85.308 928.38 85.524 929.268 85.524Z" fill="#00D0FF"/>
<path d="M285.794 64V63.028C286.106 62.296 286.538 61.636 287.09 61.048C287.654 60.46 288.254 59.89 288.89 59.338C289.37 58.918 289.766 58.564 290.078 58.276C290.402 57.976 290.654 57.706 290.834 57.466C291.014 57.226 291.14 56.98 291.212 56.728C291.284 56.464 291.32 56.158 291.32 55.81C291.32 55.186 291.14 54.712 290.78 54.388C290.42 54.064 289.82 53.902 288.98 53.902C288.524 53.902 288.056 53.95 287.576 54.046C287.108 54.142 286.658 54.274 286.226 54.442V52.714C286.646 52.57 287.144 52.456 287.72 52.372C288.296 52.276 288.842 52.228 289.358 52.228C290.654 52.228 291.632 52.546 292.292 53.182C292.952 53.818 293.282 54.688 293.282 55.792C293.282 56.344 293.186 56.836 292.994 57.268C292.802 57.688 292.538 58.09 292.202 58.474C291.866 58.846 291.476 59.23 291.032 59.626C290.48 60.106 289.958 60.574 289.466 61.03C288.986 61.474 288.596 61.96 288.296 62.488H293.408V64H285.794ZM300.046 64.324C298.822 64.324 297.838 64.09 297.094 63.622C296.35 63.142 295.804 62.458 295.456 61.57C295.12 60.67 294.952 59.596 294.952 58.348C294.952 57.052 295.114 55.948 295.438 55.036C295.774 54.124 296.314 53.428 297.058 52.948C297.802 52.468 298.798 52.228 300.046 52.228C301.294 52.228 302.284 52.468 303.016 52.948C303.76 53.428 304.294 54.124 304.618 55.036C304.954 55.948 305.122 57.052 305.122 58.348C305.122 59.596 304.954 60.67 304.618 61.57C304.282 62.458 303.742 63.142 302.998 63.622C302.254 64.09 301.27 64.324 300.046 64.324ZM300.046 62.65C301.198 62.65 302.002 62.272 302.458 61.516C302.914 60.748 303.142 59.692 303.142 58.348C303.142 56.92 302.92 55.822 302.476 55.054C302.032 54.286 301.222 53.902 300.046 53.902C298.87 53.902 298.054 54.286 297.598 55.054C297.154 55.822 296.932 56.92 296.932 58.348C296.932 59.692 297.16 60.748 297.616 61.516C298.072 62.272 298.882 62.65 300.046 62.65ZM309.232 57.52C308.38 57.52 307.738 57.286 307.306 56.818C306.886 56.338 306.676 55.732 306.676 55C306.676 54.148 306.886 53.476 307.306 52.984C307.738 52.48 308.38 52.228 309.232 52.228C310.084 52.228 310.72 52.48 311.14 52.984C311.56 53.476 311.77 54.148 311.77 55C311.77 55.732 311.56 56.338 311.14 56.818C310.72 57.286 310.084 57.52 309.232 57.52ZM308.44 64L314.578 52.408H316.414L310.276 64H308.44ZM309.232 56.332C309.7 56.332 310.036 56.212 310.24 55.972C310.444 55.732 310.546 55.396 310.546 54.964C310.546 54.436 310.438 54.052 310.222 53.812C310.018 53.56 309.688 53.434 309.232 53.434C308.776 53.434 308.44 53.56 308.224 53.812C308.02 54.052 307.918 54.436 307.918 54.964C307.918 55.396 308.02 55.732 308.224 55.972C308.428 56.212 308.764 56.332 309.232 56.332ZM315.676 64.18C314.824 64.18 314.182 63.946 313.75 63.478C313.33 62.998 313.12 62.392 313.12 61.66C313.12 60.808 313.33 60.136 313.75 59.644C314.182 59.14 314.824 58.888 315.676 58.888C316.528 58.888 317.164 59.14 317.584 59.644C318.004 60.136 318.214 60.808 318.214 61.66C318.214 62.392 318.004 62.998 317.584 63.478C317.164 63.946 316.528 64.18 315.676 64.18ZM315.676 62.992C316.144 62.992 316.48 62.872 316.684 62.632C316.888 62.392 316.99 62.056 316.99 61.624C316.99 61.096 316.882 60.712 316.666 60.472C316.462 60.22 316.132 60.094 315.676 60.094C315.22 60.094 314.884 60.22 314.668 60.472C314.464 60.712 314.362 61.096 314.362 61.624C314.362 62.056 314.464 62.392 314.668 62.632C314.872 62.872 315.208 62.992 315.676 62.992Z" fill="white"/>
<path d="M227.5 105.18C227.152 105.18 226.768 105.156 226.348 105.108C225.928 105.072 225.526 105.012 225.142 104.928C224.77 104.844 224.458 104.754 224.206 104.658V102.948C224.686 103.14 225.178 103.284 225.682 103.38C226.198 103.464 226.714 103.506 227.23 103.506C228.166 103.506 228.862 103.368 229.318 103.092C229.774 102.816 230.002 102.33 230.002 101.634C230.002 101.01 229.792 100.56 229.372 100.284C228.964 100.008 228.376 99.87 227.608 99.87H225.862L226.024 98.412H227.482C229.006 98.412 229.768 97.812 229.768 96.612C229.768 96.024 229.564 95.592 229.156 95.316C228.76 95.04 228.118 94.902 227.23 94.902C226.738 94.902 226.24 94.95 225.736 95.046C225.244 95.142 224.806 95.274 224.422 95.442V93.768C224.782 93.624 225.25 93.498 225.826 93.39C226.402 93.282 226.972 93.228 227.536 93.228C228.952 93.228 230.002 93.528 230.686 94.128C231.382 94.728 231.73 95.496 231.73 96.432C231.73 97.008 231.586 97.548 231.298 98.052C231.022 98.556 230.584 98.916 229.984 99.132C230.68 99.312 231.184 99.636 231.496 100.104C231.82 100.572 231.982 101.124 231.982 101.76C231.982 102.924 231.574 103.788 230.758 104.352C229.942 104.904 228.856 105.18 227.5 105.18ZM238.634 105.324C237.41 105.324 236.426 105.09 235.682 104.622C234.938 104.142 234.392 103.458 234.044 102.57C233.708 101.67 233.54 100.596 233.54 99.348C233.54 98.052 233.702 96.948 234.026 96.036C234.362 95.124 234.902 94.428 235.646 93.948C236.39 93.468 237.386 93.228 238.634 93.228C239.882 93.228 240.872 93.468 241.604 93.948C242.348 94.428 242.882 95.124 243.206 96.036C243.542 96.948 243.71 98.052 243.71 99.348C243.71 100.596 243.542 101.67 243.206 102.57C242.87 103.458 242.33 104.142 241.586 104.622C240.842 105.09 239.858 105.324 238.634 105.324ZM238.634 103.65C239.786 103.65 240.59 103.272 241.046 102.516C241.502 101.748 241.73 100.692 241.73 99.348C241.73 97.92 241.508 96.822 241.064 96.054C240.62 95.286 239.81 94.902 238.634 94.902C237.458 94.902 236.642 95.286 236.186 96.054C235.742 96.822 235.52 97.92 235.52 99.348C235.52 100.692 235.748 101.748 236.204 102.516C236.66 103.272 237.47 103.65 238.634 103.65ZM247.82 98.52C246.968 98.52 246.326 98.286 245.894 97.818C245.474 97.338 245.264 96.732 245.264 96C245.264 95.148 245.474 94.476 245.894 93.984C246.326 93.48 246.968 93.228 247.82 93.228C248.672 93.228 249.308 93.48 249.728 93.984C250.148 94.476 250.358 95.148 250.358 96C250.358 96.732 250.148 97.338 249.728 97.818C249.308 98.286 248.672 98.52 247.82 98.52ZM247.028 105L253.166 93.408H255.002L248.864 105H247.028ZM247.82 97.332C248.288 97.332 248.624 97.212 248.828 96.972C249.032 96.732 249.134 96.396 249.134 95.964C249.134 95.436 249.026 95.052 248.81 94.812C248.606 94.56 248.276 94.434 247.82 94.434C247.364 94.434 247.028 94.56 246.812 94.812C246.608 95.052 246.506 95.436 246.506 95.964C246.506 96.396 246.608 96.732 246.812 96.972C247.016 97.212 247.352 97.332 247.82 97.332ZM254.264 105.18C253.412 105.18 252.77 104.946 252.338 104.478C251.918 103.998 251.708 103.392 251.708 102.66C251.708 101.808 251.918 101.136 252.338 100.644C252.77 100.14 253.412 99.888 254.264 99.888C255.116 99.888 255.752 100.14 256.172 100.644C256.592 101.136 256.802 101.808 256.802 102.66C256.802 103.392 256.592 103.998 256.172 104.478C255.752 104.946 255.116 105.18 254.264 105.18ZM254.264 103.992C254.732 103.992 255.068 103.872 255.272 103.632C255.476 103.392 255.578 103.056 255.578 102.624C255.578 102.096 255.47 101.712 255.254 101.472C255.05 101.22 254.72 101.094 254.264 101.094C253.808 101.094 253.472 101.22 253.256 101.472C253.052 101.712 252.95 102.096 252.95 102.624C252.95 103.056 253.052 103.392 253.256 103.632C253.46 103.872 253.796 103.992 254.264 103.992Z" fill="white"/>
<path d="M170.517 144.18C170.001 144.18 169.437 144.138 168.825 144.054C168.213 143.97 167.703 143.838 167.295 143.658V141.948C167.715 142.128 168.195 142.266 168.735 142.362C169.275 142.458 169.785 142.506 170.265 142.506C171.189 142.506 171.867 142.35 172.299 142.038C172.743 141.714 172.965 141.186 172.965 140.454C172.965 139.782 172.809 139.284 172.497 138.96C172.185 138.636 171.573 138.474 170.661 138.474H167.241V137.286L167.547 132.408H174.135L173.973 133.92H169.203L169.005 136.962H170.967C172.347 136.962 173.355 137.256 173.991 137.844C174.627 138.432 174.945 139.314 174.945 140.49C174.945 141.63 174.573 142.53 173.829 143.19C173.085 143.85 171.981 144.18 170.517 144.18ZM181.598 144.324C180.374 144.324 179.39 144.09 178.646 143.622C177.902 143.142 177.356 142.458 177.008 141.57C176.672 140.67 176.504 139.596 176.504 138.348C176.504 137.052 176.666 135.948 176.99 135.036C177.326 134.124 177.866 133.428 178.61 132.948C179.354 132.468 180.35 132.228 181.598 132.228C182.846 132.228 183.836 132.468 184.568 132.948C185.312 133.428 185.846 134.124 186.17 135.036C186.506 135.948 186.674 137.052 186.674 138.348C186.674 139.596 186.506 140.67 186.17 141.57C185.834 142.458 185.294 143.142 184.55 143.622C183.806 144.09 182.822 144.324 181.598 144.324ZM181.598 142.65C182.75 142.65 183.554 142.272 184.01 141.516C184.466 140.748 184.694 139.692 184.694 138.348C184.694 136.92 184.472 135.822 184.028 135.054C183.584 134.286 182.774 133.902 181.598 133.902C180.422 133.902 179.606 134.286 179.15 135.054C178.706 135.822 178.484 136.92 178.484 138.348C178.484 139.692 178.712 140.748 179.168 141.516C179.624 142.272 180.434 142.65 181.598 142.65ZM190.785 137.52C189.933 137.52 189.291 137.286 188.859 136.818C188.439 136.338 188.229 135.732 188.229 135C188.229 134.148 188.439 133.476 188.859 132.984C189.291 132.48 189.933 132.228 190.785 132.228C191.637 132.228 192.273 132.48 192.693 132.984C193.113 133.476 193.323 134.148 193.323 135C193.323 135.732 193.113 136.338 192.693 136.818C192.273 137.286 191.637 137.52 190.785 137.52ZM189.993 144L196.131 132.408H197.967L191.829 144H189.993ZM190.785 136.332C191.253 136.332 191.589 136.212 191.793 135.972C191.997 135.732 192.099 135.396 192.099 134.964C192.099 134.436 191.991 134.052 191.775 133.812C191.571 133.56 191.241 133.434 190.785 133.434C190.329 133.434 189.993 133.56 189.777 133.812C189.573 134.052 189.471 134.436 189.471 134.964C189.471 135.396 189.573 135.732 189.777 135.972C189.981 136.212 190.317 136.332 190.785 136.332ZM197.229 144.18C196.377 144.18 195.735 143.946 195.303 143.478C194.883 142.998 194.673 142.392 194.673 141.66C194.673 140.808 194.883 140.136 195.303 139.644C195.735 139.14 196.377 138.888 197.229 138.888C198.081 138.888 198.717 139.14 199.137 139.644C199.557 140.136 199.767 140.808 199.767 141.66C199.767 142.392 199.557 142.998 199.137 143.478C198.717 143.946 198.081 144.18 197.229 144.18ZM197.229 142.992C197.697 142.992 198.033 142.872 198.237 142.632C198.441 142.392 198.543 142.056 198.543 141.624C198.543 141.096 198.435 140.712 198.219 140.472C198.015 140.22 197.685 140.094 197.229 140.094C196.773 140.094 196.437 140.22 196.221 140.472C196.017 140.712 195.915 141.096 195.915 141.624C195.915 142.056 196.017 142.392 196.221 142.632C196.425 142.872 196.761 142.992 197.229 142.992Z" fill="white"/>
<path d="M114.096 182L118.362 171.92H112.71V170.408H120.468V171.668L116.094 182H114.096ZM126.949 182.324C125.725 182.324 124.741 182.09 123.997 181.622C123.253 181.142 122.707 180.458 122.359 179.57C122.023 178.67 121.855 177.596 121.855 176.348C121.855 175.052 122.017 173.948 122.341 173.036C122.677 172.124 123.217 171.428 123.961 170.948C124.705 170.468 125.701 170.228 126.949 170.228C128.197 170.228 129.187 170.468 129.919 170.948C130.663 171.428 131.197 172.124 131.521 173.036C131.857 173.948 132.025 175.052 132.025 176.348C132.025 177.596 131.857 178.67 131.521 179.57C131.185 180.458 130.645 181.142 129.901 181.622C129.157 182.09 128.173 182.324 126.949 182.324ZM126.949 180.65C128.101 180.65 128.905 180.272 129.361 179.516C129.817 178.748 130.045 177.692 130.045 176.348C130.045 174.92 129.823 173.822 129.379 173.054C128.935 172.286 128.125 171.902 126.949 171.902C125.773 171.902 124.957 172.286 124.501 173.054C124.057 173.822 123.835 174.92 123.835 176.348C123.835 177.692 124.063 178.748 124.519 179.516C124.975 180.272 125.785 180.65 126.949 180.65ZM136.136 175.52C135.284 175.52 134.642 175.286 134.21 174.818C133.79 174.338 133.58 173.732 133.58 173C133.58 172.148 133.79 171.476 134.21 170.984C134.642 170.48 135.284 170.228 136.136 170.228C136.988 170.228 137.624 170.48 138.044 170.984C138.464 171.476 138.674 172.148 138.674 173C138.674 173.732 138.464 174.338 138.044 174.818C137.624 175.286 136.988 175.52 136.136 175.52ZM135.344 182L141.482 170.408H143.318L137.18 182H135.344ZM136.136 174.332C136.604 174.332 136.94 174.212 137.144 173.972C137.348 173.732 137.45 173.396 137.45 172.964C137.45 172.436 137.342 172.052 137.126 171.812C136.922 171.56 136.592 171.434 136.136 171.434C135.68 171.434 135.344 171.56 135.128 171.812C134.924 172.052 134.822 172.436 134.822 172.964C134.822 173.396 134.924 173.732 135.128 173.972C135.332 174.212 135.668 174.332 136.136 174.332ZM142.58 182.18C141.728 182.18 141.086 181.946 140.654 181.478C140.234 180.998 140.024 180.392 140.024 179.66C140.024 178.808 140.234 178.136 140.654 177.644C141.086 177.14 141.728 176.888 142.58 176.888C143.432 176.888 144.068 177.14 144.488 177.644C144.908 178.136 145.118 178.808 145.118 179.66C145.118 180.392 144.908 180.998 144.488 181.478C144.068 181.946 143.432 182.18 142.58 182.18ZM142.58 180.992C143.048 180.992 143.384 180.872 143.588 180.632C143.792 180.392 143.894 180.056 143.894 179.624C143.894 179.096 143.786 178.712 143.57 178.472C143.366 178.22 143.036 178.094 142.58 178.094C142.124 178.094 141.788 178.22 141.572 178.472C141.368 178.712 141.266 179.096 141.266 179.624C141.266 180.056 141.368 180.392 141.572 180.632C141.776 180.872 142.112 180.992 142.58 180.992Z" fill="white"/>
<path d="M69.1 216.18C66.076 216.18 64.564 215.076 64.564 212.868C64.564 212.208 64.738 211.62 65.086 211.104C65.446 210.588 65.956 210.222 66.616 210.006C66.016 209.778 65.578 209.442 65.302 208.998C65.026 208.542 64.888 208.056 64.888 207.54C64.888 206.544 65.23 205.746 65.914 205.146C66.61 204.534 67.672 204.228 69.1 204.228C70.564 204.228 71.632 204.534 72.304 205.146C72.976 205.746 73.312 206.544 73.312 207.54C73.312 208.092 73.174 208.608 72.898 209.088C72.634 209.556 72.166 209.916 71.494 210.168C72.238 210.384 72.778 210.72 73.114 211.176C73.45 211.62 73.618 212.184 73.618 212.868C73.618 215.076 72.112 216.18 69.1 216.18ZM69.586 209.556C70.246 209.388 70.726 209.16 71.026 208.872C71.338 208.584 71.494 208.152 71.494 207.576C71.494 206.376 70.696 205.776 69.1 205.776C68.32 205.776 67.726 205.92 67.318 206.208C66.91 206.496 66.706 206.952 66.706 207.576C66.706 208.524 67.24 209.1 68.308 209.304L69.586 209.556ZM69.1 214.65C70 214.65 70.672 214.506 71.116 214.218C71.572 213.918 71.8 213.456 71.8 212.832C71.8 212.268 71.638 211.86 71.314 211.608C71.002 211.344 70.516 211.146 69.856 211.014L68.38 210.708C67.768 210.84 67.282 211.062 66.922 211.374C66.562 211.674 66.382 212.148 66.382 212.796C66.382 213.444 66.61 213.918 67.066 214.218C67.534 214.506 68.212 214.65 69.1 214.65ZM80.2752 216.324C79.0512 216.324 78.0672 216.09 77.3232 215.622C76.5792 215.142 76.0332 214.458 75.6852 213.57C75.3492 212.67 75.1812 211.596 75.1812 210.348C75.1812 209.052 75.3432 207.948 75.6672 207.036C76.0032 206.124 76.5432 205.428 77.2872 204.948C78.0312 204.468 79.0272 204.228 80.2752 204.228C81.5232 204.228 82.5132 204.468 83.2452 204.948C83.9892 205.428 84.5232 206.124 84.8472 207.036C85.1832 207.948 85.3512 209.052 85.3512 210.348C85.3512 211.596 85.1832 212.67 84.8472 213.57C84.5112 214.458 83.9712 215.142 83.2272 215.622C82.4832 216.09 81.4992 216.324 80.2752 216.324ZM80.2752 214.65C81.4272 214.65 82.2312 214.272 82.6872 213.516C83.1432 212.748 83.3712 211.692 83.3712 210.348C83.3712 208.92 83.1492 207.822 82.7052 207.054C82.2612 206.286 81.4512 205.902 80.2752 205.902C79.0992 205.902 78.2832 206.286 77.8272 207.054C77.3832 207.822 77.1612 208.92 77.1612 210.348C77.1612 211.692 77.3892 212.748 77.8452 213.516C78.3012 214.272 79.1112 214.65 80.2752 214.65ZM89.4618 209.52C88.6098 209.52 87.9678 209.286 87.5358 208.818C87.1158 208.338 86.9058 207.732 86.9058 207C86.9058 206.148 87.1158 205.476 87.5358 204.984C87.9678 204.48 88.6098 204.228 89.4618 204.228C90.3138 204.228 90.9498 204.48 91.3698 204.984C91.7898 205.476 91.9998 206.148 91.9998 207C91.9998 207.732 91.7898 208.338 91.3698 208.818C90.9498 209.286 90.3138 209.52 89.4618 209.52ZM88.6698 216L94.8078 204.408H96.6438L90.5058 216H88.6698ZM89.4618 208.332C89.9298 208.332 90.2658 208.212 90.4698 207.972C90.6738 207.732 90.7758 207.396 90.7758 206.964C90.7758 206.436 90.6678 206.052 90.4518 205.812C90.2478 205.56 89.9178 205.434 89.4618 205.434C89.0058 205.434 88.6698 205.56 88.4538 205.812C88.2498 206.052 88.1478 206.436 88.1478 206.964C88.1478 207.396 88.2498 207.732 88.4538 207.972C88.6578 208.212 88.9938 208.332 89.4618 208.332ZM95.9058 216.18C95.0538 216.18 94.4118 215.946 93.9798 215.478C93.5598 214.998 93.3498 214.392 93.3498 213.66C93.3498 212.808 93.5598 212.136 93.9798 211.644C94.4118 211.14 95.0538 210.888 95.9058 210.888C96.7578 210.888 97.3938 211.14 97.8138 211.644C98.2338 212.136 98.4438 212.808 98.4438 213.66C98.4438 214.392 98.2338 214.998 97.8138 215.478C97.3938 215.946 96.7578 216.18 95.9058 216.18ZM95.9058 214.992C96.3738 214.992 96.7098 214.872 96.9138 214.632C97.1178 214.392 97.2198 214.056 97.2198 213.624C97.2198 213.096 97.1118 212.712 96.8958 212.472C96.6918 212.22 96.3618 212.094 95.9058 212.094C95.4498 212.094 95.1138 212.22 94.8978 212.472C94.6938 212.712 94.5918 213.096 94.5918 213.624C94.5918 214.056 94.6938 214.392 94.8978 214.632C95.1018 214.872 95.4378 214.992 95.9058 214.992Z" fill="white"/>
<path d="M5.31392 260.18C4.72592 260.18 4.21592 260.144 3.78392 260.072C3.35192 260 2.94392 259.904 2.55992 259.784V258.092C2.93192 258.236 3.32792 258.344 3.74792 258.416C4.17992 258.488 4.65992 258.524 5.18792 258.524C6.26792 258.524 7.06592 258.266 7.58192 257.75C8.09792 257.234 8.35592 256.55 8.35592 255.698V254.978C7.93592 255.278 7.45592 255.506 6.91592 255.662C6.37592 255.818 5.87792 255.896 5.42192 255.896C4.07792 255.896 3.07592 255.566 2.41592 254.906C1.76792 254.246 1.44392 253.31 1.44392 252.098C1.44392 250.958 1.79792 250.028 2.50592 249.308C3.21392 248.588 4.31792 248.228 5.81792 248.228C7.26992 248.228 8.36192 248.594 9.09392 249.326C9.83792 250.046 10.2099 251.174 10.2099 252.71V255.32C10.2099 256.28 10.0119 257.126 9.61592 257.858C9.21992 258.59 8.65592 259.16 7.92392 259.568C7.19192 259.976 6.32192 260.18 5.31392 260.18ZM5.70992 254.402C6.20192 254.402 6.67592 254.318 7.13192 254.15C7.58792 253.982 7.99592 253.772 8.35592 253.52V252.26C8.35592 250.568 7.50392 249.722 5.79992 249.722C4.93592 249.722 4.28792 249.932 3.85592 250.352C3.42392 250.772 3.20792 251.336 3.20792 252.044C3.20792 252.776 3.38192 253.352 3.72992 253.772C4.08992 254.192 4.74992 254.402 5.70992 254.402ZM15.0383 260.18C14.5223 260.18 13.9583 260.138 13.3463 260.054C12.7343 259.97 12.2243 259.838 11.8163 259.658V257.948C12.2363 258.128 12.7163 258.266 13.2563 258.362C13.7963 258.458 14.3063 258.506 14.7863 258.506C15.7103 258.506 16.3883 258.35 16.8203 258.038C17.2643 257.714 17.4863 257.186 17.4863 256.454C17.4863 255.782 17.3303 255.284 17.0183 254.96C16.7063 254.636 16.0943 254.474 15.1823 254.474H11.7623V253.286L12.0683 248.408H18.6563L18.4943 249.92H13.7243L13.5263 252.962H15.4883C16.8683 252.962 17.8763 253.256 18.5123 253.844C19.1483 254.432 19.4663 255.314 19.4663 256.49C19.4663 257.63 19.0943 258.53 18.3503 259.19C17.6063 259.85 16.5023 260.18 15.0383 260.18ZM23.582 253.52C22.73 253.52 22.088 253.286 21.656 252.818C21.236 252.338 21.026 251.732 21.026 251C21.026 250.148 21.236 249.476 21.656 248.984C22.088 248.48 22.73 248.228 23.582 248.228C24.434 248.228 25.07 248.48 25.49 248.984C25.91 249.476 26.12 250.148 26.12 251C26.12 251.732 25.91 252.338 25.49 252.818C25.07 253.286 24.434 253.52 23.582 253.52ZM22.79 260L28.928 248.408H30.764L24.626 260H22.79ZM23.582 252.332C24.05 252.332 24.386 252.212 24.59 251.972C24.794 251.732 24.896 251.396 24.896 250.964C24.896 250.436 24.788 250.052 24.572 249.812C24.368 249.56 24.038 249.434 23.582 249.434C23.126 249.434 22.79 249.56 22.574 249.812C22.37 250.052 22.268 250.436 22.268 250.964C22.268 251.396 22.37 251.732 22.574 251.972C22.778 252.212 23.114 252.332 23.582 252.332ZM30.026 260.18C29.174 260.18 28.532 259.946 28.1 259.478C27.68 258.998 27.47 258.392 27.47 257.66C27.47 256.808 27.68 256.136 28.1 255.644C28.532 255.14 29.174 254.888 30.026 254.888C30.878 254.888 31.514 255.14 31.934 255.644C32.354 256.136 32.564 256.808 32.564 257.66C32.564 258.392 32.354 258.998 31.934 259.478C31.514 259.946 30.878 260.18 30.026 260.18ZM30.026 258.992C30.494 258.992 30.83 258.872 31.034 258.632C31.238 258.392 31.34 258.056 31.34 257.624C31.34 257.096 31.232 256.712 31.016 256.472C30.812 256.22 30.482 256.094 30.026 256.094C29.57 256.094 29.234 256.22 29.018 256.472C28.814 256.712 28.712 257.096 28.712 257.624C28.712 258.056 28.814 258.392 29.018 258.632C29.222 258.872 29.558 258.992 30.026 258.992Z" fill="white"/>
<path d="M942 275H1005V224.5L1016.5 216L1005 205V156H838" stroke="url(#paint7_linear_310_213)"/>
<path d="M607.5 1H861V60L873 69.5L861 81.5V149H787" stroke="url(#paint8_linear_310_213)"/>
<path d="M489.295 30V17.12H491.475V28.32H498.075V30H489.295ZM504.095 30.2C502.442 30.2 501.162 29.7933 500.255 28.98C499.348 28.1667 498.895 26.92 498.895 25.24C498.895 23.72 499.282 22.52 500.055 21.64C500.828 20.76 502.002 20.32 503.575 20.32C505.015 20.32 506.095 20.7 506.815 21.46C507.548 22.2067 507.915 23.1733 507.915 24.36V26.12H500.975C501.082 27.04 501.415 27.6733 501.975 28.02C502.535 28.3667 503.388 28.54 504.535 28.54C505.015 28.54 505.508 28.4933 506.015 28.4C506.522 28.3067 506.962 28.1867 507.335 28.04V29.64C506.908 29.8267 506.415 29.9667 505.855 30.06C505.308 30.1533 504.722 30.2 504.095 30.2ZM500.975 24.7H505.995V24.04C505.995 23.3867 505.815 22.88 505.455 22.52C505.095 22.1467 504.488 21.96 503.635 21.96C502.622 21.96 501.922 22.18 501.535 22.62C501.162 23.06 500.975 23.7533 500.975 24.7ZM510.037 30V20.52H512.037L512.157 21.62C512.611 21.3267 513.151 21.06 513.777 20.82C514.404 20.58 515.024 20.4133 515.637 20.32V21.98C515.264 22.0467 514.857 22.1467 514.417 22.28C513.991 22.4 513.584 22.54 513.197 22.7C512.811 22.8467 512.484 23 512.217 23.16V30H510.037Z" fill="black"/>
<path d="M466.112 67V54.12H475.092V55.82H468.292V59.72H474.352V61.4H468.292V65.32H475.092V67H466.112ZM480.268 67.2C479.614 67.2 478.988 67.1533 478.388 67.06C477.801 66.9667 477.314 66.8533 476.928 66.72V64.88C477.381 65.0533 477.881 65.1867 478.428 65.28C478.974 65.3733 479.494 65.42 479.988 65.42C480.734 65.42 481.268 65.3533 481.588 65.22C481.908 65.0867 482.068 64.8267 482.068 64.44C482.068 64.16 481.968 63.94 481.768 63.78C481.581 63.62 481.294 63.4733 480.908 63.34C480.534 63.2067 480.054 63.0467 479.468 62.86C478.908 62.6733 478.421 62.4733 478.008 62.26C477.594 62.0333 477.274 61.7467 477.048 61.4C476.821 61.0533 476.708 60.6 476.708 60.04C476.708 59.1733 477.021 58.5067 477.648 58.04C478.274 57.56 479.281 57.32 480.668 57.32C481.214 57.32 481.734 57.36 482.228 57.44C482.721 57.52 483.141 57.62 483.488 57.74V59.56C483.114 59.4133 482.701 59.3 482.248 59.22C481.808 59.14 481.394 59.1 481.008 59.1C480.314 59.1 479.788 59.16 479.428 59.28C479.081 59.4 478.908 59.64 478.908 60C478.908 60.3733 479.088 60.64 479.448 60.8C479.821 60.9467 480.414 61.1533 481.228 61.42C481.974 61.6467 482.568 61.8867 483.008 62.14C483.448 62.3933 483.761 62.7 483.948 63.06C484.148 63.4067 484.248 63.86 484.248 64.42C484.248 65.3533 483.908 66.0533 483.228 66.52C482.548 66.9733 481.561 67.2 480.268 67.2ZM490.752 67.2C489.085 67.2 487.825 66.78 486.972 65.94C486.119 65.0867 485.692 63.86 485.692 62.26C485.692 60.5933 486.159 59.3533 487.092 58.54C488.039 57.7267 489.299 57.32 490.872 57.32C491.525 57.32 492.072 57.3667 492.512 57.46C492.965 57.5533 493.399 57.7 493.812 57.9V59.52C493.119 59.1733 492.279 59 491.292 59C490.199 59 489.359 59.2467 488.772 59.74C488.185 60.22 487.892 61.06 487.892 62.26C487.892 63.3933 488.152 64.2267 488.672 64.76C489.192 65.28 490.052 65.54 491.252 65.54C492.199 65.54 493.059 65.36 493.832 65V66.66C493.392 66.8333 492.919 66.9667 492.412 67.06C491.919 67.1533 491.365 67.2 490.752 67.2ZM495.565 67V57.52H497.565L497.685 58.62C498.138 58.3267 498.678 58.06 499.305 57.82C499.931 57.58 500.551 57.4133 501.165 57.32V58.98C500.791 59.0467 500.385 59.1467 499.945 59.28C499.518 59.4 499.111 59.54 498.725 59.7C498.338 59.8467 498.011 60 497.745 60.16V67H495.565ZM507.162 67.2C505.508 67.2 504.228 66.7933 503.322 65.98C502.415 65.1667 501.962 63.92 501.962 62.24C501.962 60.72 502.348 59.52 503.122 58.64C503.895 57.76 505.068 57.32 506.642 57.32C508.082 57.32 509.162 57.7 509.882 58.46C510.615 59.2067 510.982 60.1733 510.982 61.36V63.12H504.042C504.148 64.04 504.482 64.6733 505.042 65.02C505.602 65.3667 506.455 65.54 507.602 65.54C508.082 65.54 508.575 65.4933 509.082 65.4C509.588 65.3067 510.028 65.1867 510.402 65.04V66.64C509.975 66.8267 509.482 66.9667 508.922 67.06C508.375 67.1533 507.788 67.2 507.162 67.2ZM504.042 61.7H509.062V61.04C509.062 60.3867 508.882 59.88 508.522 59.52C508.162 59.1467 507.555 58.96 506.702 58.96C505.688 58.96 504.988 59.18 504.602 59.62C504.228 60.06 504.042 60.7533 504.042 61.7ZM515.35 67L511.61 57.52H513.87L516.53 64.88L519.19 57.52H521.43L517.71 67H515.35ZM527.279 67.2C525.625 67.2 524.345 66.7933 523.439 65.98C522.532 65.1667 522.079 63.92 522.079 62.24C522.079 60.72 522.465 59.52 523.239 58.64C524.012 57.76 525.185 57.32 526.759 57.32C528.199 57.32 529.279 57.7 529.999 58.46C530.732 59.2067 531.099 60.1733 531.099 61.36V63.12H524.159C524.265 64.04 524.599 64.6733 525.159 65.02C525.719 65.3667 526.572 65.54 527.719 65.54C528.199 65.54 528.692 65.4933 529.199 65.4C529.705 65.3067 530.145 65.1867 530.519 65.04V66.64C530.092 66.8267 529.599 66.9667 529.039 67.06C528.492 67.1533 527.905 67.2 527.279 67.2ZM524.159 61.7H529.179V61.04C529.179 60.3867 528.999 59.88 528.639 59.52C528.279 59.1467 527.672 58.96 526.819 58.96C525.805 58.96 525.105 59.18 524.719 59.62C524.345 60.06 524.159 60.7533 524.159 61.7ZM533.221 67V57.52H535.221L535.341 58.62C535.794 58.3267 536.334 58.06 536.961 57.82C537.588 57.58 538.208 57.4133 538.821 57.32V58.98C538.448 59.0467 538.041 59.1467 537.601 59.28C537.174 59.4 536.768 59.54 536.381 59.7C535.994 59.8467 535.668 60 535.401 60.16V67H533.221Z" fill="#00D0FF"/>
<path d="M466.886 147L461.966 134.12H464.226L468.086 144.66L471.946 134.12H474.206L469.326 147H466.886ZM479.353 147.2C477.7 147.2 476.42 146.793 475.513 145.98C474.606 145.167 474.153 143.92 474.153 142.24C474.153 140.72 474.54 139.52 475.313 138.64C476.086 137.76 477.26 137.32 478.833 137.32C480.273 137.32 481.353 137.7 482.073 138.46C482.806 139.207 483.173 140.173 483.173 141.36V143.12H476.233C476.34 144.04 476.673 144.673 477.233 145.02C477.793 145.367 478.646 145.54 479.793 145.54C480.273 145.54 480.766 145.493 481.273 145.4C481.78 145.307 482.22 145.187 482.593 145.04V146.64C482.166 146.827 481.673 146.967 481.113 147.06C480.566 147.153 479.98 147.2 479.353 147.2ZM476.233 141.7H481.253V141.04C481.253 140.387 481.073 139.88 480.713 139.52C480.353 139.147 479.746 138.96 478.893 138.96C477.88 138.96 477.18 139.18 476.793 139.62C476.42 140.06 476.233 140.753 476.233 141.7ZM485.295 147V137.52H487.295L487.415 138.62C487.868 138.327 488.408 138.06 489.035 137.82C489.662 137.58 490.282 137.413 490.895 137.32V138.98C490.522 139.047 490.115 139.147 489.675 139.28C489.248 139.4 488.842 139.54 488.455 139.7C488.068 139.847 487.742 140 487.475 140.16V147H485.295ZM501.892 147.2C500.239 147.2 498.959 146.793 498.052 145.98C497.145 145.167 496.692 143.92 496.692 142.24C496.692 140.72 497.079 139.52 497.852 138.64C498.625 137.76 499.799 137.32 501.372 137.32C502.812 137.32 503.892 137.7 504.612 138.46C505.345 139.207 505.712 140.173 505.712 141.36V143.12H498.772C498.879 144.04 499.212 144.673 499.772 145.02C500.332 145.367 501.185 145.54 502.332 145.54C502.812 145.54 503.305 145.493 503.812 145.4C504.319 145.307 504.759 145.187 505.132 145.04V146.64C504.705 146.827 504.212 146.967 503.652 147.06C503.105 147.153 502.519 147.2 501.892 147.2ZM498.772 141.7H503.792V141.04C503.792 140.387 503.612 139.88 503.252 139.52C502.892 139.147 502.285 138.96 501.432 138.96C500.419 138.96 499.719 139.18 499.332 139.62C498.959 140.06 498.772 140.753 498.772 141.7ZM518.144 147.2C516.104 147.2 514.577 146.667 513.564 145.6C512.55 144.52 512.044 142.853 512.044 140.6C512.044 138.253 512.55 136.553 513.564 135.5C514.577 134.447 516.104 133.92 518.144 133.92C520.197 133.92 521.724 134.447 522.724 135.5C523.737 136.553 524.244 138.253 524.244 140.6C524.244 142.853 523.737 144.52 522.724 145.6C521.724 146.667 520.197 147.2 518.144 147.2ZM518.144 145.36C519.49 145.36 520.477 144.993 521.104 144.26C521.744 143.513 522.064 142.293 522.064 140.6C522.064 138.813 521.744 137.567 521.104 136.86C520.477 136.14 519.49 135.78 518.144 135.78C516.81 135.78 515.824 136.14 515.184 136.86C514.557 137.567 514.244 138.813 514.244 140.6C514.244 142.293 514.557 143.513 515.184 144.26C515.824 144.993 516.81 145.36 518.144 145.36ZM529.789 147.2C528.656 147.2 527.783 146.887 527.169 146.26C526.569 145.633 526.269 144.713 526.269 143.5V137.52H528.449V143.5C528.449 144.207 528.623 144.727 528.969 145.06C529.316 145.393 529.849 145.56 530.569 145.56C531.103 145.56 531.596 145.46 532.049 145.26C532.503 145.06 532.896 144.793 533.229 144.46V137.52H535.389V147H533.409L533.309 146.02C532.883 146.353 532.376 146.633 531.789 146.86C531.203 147.087 530.536 147.2 529.789 147.2ZM540.764 147L537.024 137.52H539.284L541.944 144.88L544.604 137.52H546.844L543.124 147H540.764ZM549.083 135.54V133.74H551.463V135.54H549.083ZM549.263 147V139.18H547.823L548.023 137.52H551.443V147H549.263ZM553.987 147V137.52H555.987L556.107 138.62C556.56 138.327 557.1 138.06 557.727 137.82C558.353 137.58 558.973 137.413 559.587 137.32V138.98C559.213 139.047 558.807 139.147 558.367 139.28C557.94 139.4 557.533 139.54 557.147 139.7C556.76 139.847 556.433 140 556.167 140.16V147H553.987Z" fill="#00D0FF"/>
<path d="M468.358 225V212.12H474.098C475.084 212.12 475.898 212.307 476.538 212.68C477.178 213.053 477.651 213.567 477.958 214.22C478.264 214.86 478.418 215.593 478.418 216.42C478.418 217.7 478.018 218.727 477.218 219.5C476.431 220.273 475.364 220.66 474.018 220.66H470.538V225H468.358ZM470.538 218.94H473.618C474.484 218.94 475.138 218.713 475.578 218.26C476.018 217.807 476.238 217.193 476.238 216.42C476.238 215.593 476.024 214.953 475.598 214.5C475.184 214.047 474.558 213.82 473.718 213.82H470.538V218.94ZM480.155 225V215.52H482.155L482.275 216.62C482.728 216.327 483.268 216.06 483.895 215.82C484.521 215.58 485.141 215.413 485.755 215.32V216.98C485.381 217.047 484.975 217.147 484.535 217.28C484.108 217.4 483.701 217.54 483.315 217.7C482.928 217.847 482.601 218 482.335 218.16V225H480.155ZM489.697 225.2C489.097 225.2 488.537 225.093 488.017 224.88C487.51 224.667 487.103 224.347 486.797 223.92C486.49 223.48 486.337 222.94 486.337 222.3C486.337 221.393 486.643 220.667 487.257 220.12C487.883 219.56 488.843 219.28 490.137 219.28H493.177V218.86C493.177 218.407 493.103 218.047 492.957 217.78C492.823 217.513 492.57 217.32 492.197 217.2C491.837 217.08 491.303 217.02 490.597 217.02C489.477 217.02 488.43 217.187 487.457 217.52V215.9C487.883 215.727 488.403 215.587 489.017 215.48C489.63 215.373 490.29 215.32 490.997 215.32C492.383 215.32 493.437 215.6 494.157 216.16C494.89 216.72 495.257 217.633 495.257 218.9V225H493.397L493.257 224.04C492.87 224.413 492.39 224.7 491.817 224.9C491.257 225.1 490.55 225.2 489.697 225.2ZM490.277 223.64C490.93 223.64 491.497 223.533 491.977 223.32C492.47 223.093 492.87 222.793 493.177 222.42V220.76H490.177C489.537 220.76 489.07 220.887 488.777 221.14C488.497 221.38 488.357 221.753 488.357 222.26C488.357 222.753 488.523 223.107 488.857 223.32C489.19 223.533 489.663 223.64 490.277 223.64ZM501.294 225.2C500.281 225.2 499.521 224.933 499.014 224.4C498.521 223.853 498.274 223.113 498.274 222.18V217.22H496.874V215.52H498.274V213.34L500.434 212.68V215.52H502.954L502.814 217.22H500.434V222.06C500.434 222.607 500.561 222.993 500.814 223.22C501.067 223.433 501.481 223.54 502.054 223.54C502.414 223.54 502.794 223.473 503.194 223.34V224.88C502.674 225.093 502.041 225.2 501.294 225.2ZM505.662 213.54V211.74H508.042V213.54H505.662ZM505.842 225V217.18H504.402L504.602 215.52H508.022V225H505.842ZM515.225 225.2C513.558 225.2 512.298 224.78 511.445 223.94C510.591 223.087 510.165 221.86 510.165 220.26C510.165 218.593 510.631 217.353 511.565 216.54C512.511 215.727 513.771 215.32 515.345 215.32C515.998 215.32 516.545 215.367 516.985 215.46C517.438 215.553 517.871 215.7 518.285 215.9V217.52C517.591 217.173 516.751 217 515.765 217C514.671 217 513.831 217.247 513.245 217.74C512.658 218.22 512.365 219.06 512.365 220.26C512.365 221.393 512.625 222.227 513.145 222.76C513.665 223.28 514.525 223.54 515.725 223.54C516.671 223.54 517.531 223.36 518.305 223V224.66C517.865 224.833 517.391 224.967 516.885 225.06C516.391 225.153 515.838 225.2 515.225 225.2ZM522.997 225.2C522.397 225.2 521.837 225.093 521.317 224.88C520.811 224.667 520.404 224.347 520.097 223.92C519.791 223.48 519.637 222.94 519.637 222.3C519.637 221.393 519.944 220.667 520.557 220.12C521.184 219.56 522.144 219.28 523.437 219.28H526.477V218.86C526.477 218.407 526.404 218.047 526.257 217.78C526.124 217.513 525.871 217.32 525.497 217.2C525.137 217.08 524.604 217.02 523.897 217.02C522.777 217.02 521.731 217.187 520.757 217.52V215.9C521.184 215.727 521.704 215.587 522.317 215.48C522.931 215.373 523.591 215.32 524.297 215.32C525.684 215.32 526.737 215.6 527.457 216.16C528.191 216.72 528.557 217.633 528.557 218.9V225H526.697L526.557 224.04C526.171 224.413 525.691 224.7 525.117 224.9C524.557 225.1 523.851 225.2 522.997 225.2ZM523.577 223.64C524.231 223.64 524.797 223.533 525.277 223.32C525.771 223.093 526.171 222.793 526.477 222.42V220.76H523.477C522.837 220.76 522.371 220.887 522.077 221.14C521.797 221.38 521.657 221.753 521.657 222.26C521.657 222.753 521.824 223.107 522.157 223.32C522.491 223.533 522.964 223.64 523.577 223.64ZM530.975 225V215.52H532.975L533.095 216.62C533.548 216.327 534.088 216.06 534.715 215.82C535.342 215.58 535.962 215.413 536.575 215.32V216.98C536.202 217.047 535.795 217.147 535.355 217.28C534.928 217.4 534.522 217.54 534.135 217.7C533.748 217.847 533.422 218 533.155 218.16V225H530.975Z" fill="#00D0FF"/>
<path d="M468.726 104.2C466.686 104.2 465.159 103.667 464.146 102.6C463.132 101.52 462.626 99.8533 462.626 97.6C462.626 95.2533 463.132 93.5533 464.146 92.5C465.159 91.4467 466.686 90.92 468.726 90.92C470.779 90.92 472.306 91.4467 473.306 92.5C474.319 93.5533 474.826 95.2533 474.826 97.6C474.826 99.8533 474.319 101.52 473.306 102.6C472.306 103.667 470.779 104.2 468.726 104.2ZM468.726 102.36C470.072 102.36 471.059 101.993 471.686 101.26C472.326 100.513 472.646 99.2933 472.646 97.6C472.646 95.8133 472.326 94.5667 471.686 93.86C471.059 93.14 470.072 92.78 468.726 92.78C467.392 92.78 466.406 93.14 465.766 93.86C465.139 94.5667 464.826 95.8133 464.826 97.6C464.826 99.2933 465.139 100.513 465.766 101.26C466.406 101.993 467.392 102.36 468.726 102.36ZM482.151 104.2C481.458 104.2 480.858 104.107 480.351 103.92C479.845 103.733 479.378 103.447 478.951 103.06L478.831 104H476.951V90.52H479.131V95.14C479.958 94.5933 480.951 94.32 482.111 94.32C483.458 94.32 484.518 94.7067 485.291 95.48C486.078 96.24 486.471 97.4733 486.471 99.18C486.471 100.9 486.085 102.167 485.311 102.98C484.538 103.793 483.485 104.2 482.151 104.2ZM481.571 102.56C482.558 102.56 483.251 102.28 483.651 101.72C484.065 101.16 484.271 100.313 484.271 99.18C484.271 98.0067 484.051 97.18 483.611 96.7C483.171 96.22 482.478 95.98 481.531 95.98C480.545 95.98 479.745 96.2533 479.131 96.8V101.56C479.758 102.227 480.571 102.56 481.571 102.56ZM491.654 104.2C491.001 104.2 490.374 104.153 489.774 104.06C489.188 103.967 488.701 103.853 488.314 103.72V101.88C488.768 102.053 489.268 102.187 489.814 102.28C490.361 102.373 490.881 102.42 491.374 102.42C492.121 102.42 492.654 102.353 492.974 102.22C493.294 102.087 493.454 101.827 493.454 101.44C493.454 101.16 493.354 100.94 493.154 100.78C492.968 100.62 492.681 100.473 492.294 100.34C491.921 100.207 491.441 100.047 490.854 99.86C490.294 99.6733 489.808 99.4733 489.394 99.26C488.981 99.0333 488.661 98.7467 488.434 98.4C488.208 98.0533 488.094 97.6 488.094 97.04C488.094 96.1733 488.408 95.5067 489.034 95.04C489.661 94.56 490.668 94.32 492.054 94.32C492.601 94.32 493.121 94.36 493.614 94.44C494.108 94.52 494.528 94.62 494.874 94.74V96.56C494.501 96.4133 494.088 96.3 493.634 96.22C493.194 96.14 492.781 96.1 492.394 96.1C491.701 96.1 491.174 96.16 490.814 96.28C490.468 96.4 490.294 96.64 490.294 97C490.294 97.3733 490.474 97.64 490.834 97.8C491.208 97.9467 491.801 98.1533 492.614 98.42C493.361 98.6467 493.954 98.8867 494.394 99.14C494.834 99.3933 495.148 99.7 495.334 100.06C495.534 100.407 495.634 100.86 495.634 101.42C495.634 102.353 495.294 103.053 494.614 103.52C493.934 103.973 492.948 104.2 491.654 104.2ZM502.279 104.2C500.625 104.2 499.345 103.793 498.439 102.98C497.532 102.167 497.079 100.92 497.079 99.24C497.079 97.72 497.465 96.52 498.239 95.64C499.012 94.76 500.185 94.32 501.759 94.32C503.199 94.32 504.279 94.7 504.999 95.46C505.732 96.2067 506.099 97.1733 506.099 98.36V100.12H499.159C499.265 101.04 499.599 101.673 500.159 102.02C500.719 102.367 501.572 102.54 502.719 102.54C503.199 102.54 503.692 102.493 504.199 102.4C504.705 102.307 505.145 102.187 505.519 102.04V103.64C505.092 103.827 504.599 103.967 504.039 104.06C503.492 104.153 502.905 104.2 502.279 104.2ZM499.159 98.7H504.179V98.04C504.179 97.3867 503.999 96.88 503.639 96.52C503.279 96.1467 502.672 95.96 501.819 95.96C500.805 95.96 500.105 96.18 499.719 96.62C499.345 97.06 499.159 97.7533 499.159 98.7ZM508.221 104V94.52H510.221L510.341 95.62C510.794 95.3267 511.334 95.06 511.961 94.82C512.588 94.58 513.208 94.4133 513.821 94.32V95.98C513.448 96.0467 513.041 96.1467 512.601 96.28C512.174 96.4 511.768 96.54 511.381 96.7C510.994 96.8467 510.668 97 510.401 97.16V104H508.221ZM518.045 104L514.305 94.52H516.565L519.225 101.88L521.885 94.52H524.125L520.405 104H518.045ZM528.329 104.2C527.729 104.2 527.169 104.093 526.649 103.88C526.143 103.667 525.736 103.347 525.429 102.92C525.123 102.48 524.969 101.94 524.969 101.3C524.969 100.393 525.276 99.6667 525.889 99.12C526.516 98.56 527.476 98.28 528.769 98.28H531.809V97.86C531.809 97.4067 531.736 97.0467 531.589 96.78C531.456 96.5133 531.203 96.32 530.829 96.2C530.469 96.08 529.936 96.02 529.229 96.02C528.109 96.02 527.063 96.1867 526.089 96.52V94.9C526.516 94.7267 527.036 94.5867 527.649 94.48C528.263 94.3733 528.923 94.32 529.629 94.32C531.016 94.32 532.069 94.6 532.789 95.16C533.523 95.72 533.889 96.6333 533.889 97.9V104H532.029L531.889 103.04C531.503 103.413 531.023 103.7 530.449 103.9C529.889 104.1 529.183 104.2 528.329 104.2ZM528.909 102.64C529.563 102.64 530.129 102.533 530.609 102.32C531.103 102.093 531.503 101.793 531.809 101.42V99.76H528.809C528.169 99.76 527.703 99.8867 527.409 100.14C527.129 100.38 526.989 100.753 526.989 101.26C526.989 101.753 527.156 102.107 527.489 102.32C527.823 102.533 528.296 102.64 528.909 102.64ZM536.307 104V94.52H538.307L538.427 95.62C538.88 95.3267 539.42 95.06 540.047 94.82C540.674 94.58 541.294 94.4133 541.907 94.32V95.98C541.534 96.0467 541.127 96.1467 540.687 96.28C540.26 96.4 539.854 96.54 539.467 96.7C539.08 96.8467 538.754 97 538.487 97.16V104H536.307Z" fill="black"/>
<path d="M469.119 184V171.12H474.339C476.246 171.12 477.659 171.627 478.579 172.64C479.499 173.64 479.959 175.307 479.959 177.64C479.959 179.84 479.506 181.453 478.599 182.48C477.693 183.493 476.273 184 474.339 184H469.119ZM471.299 182.32H473.999C474.839 182.32 475.539 182.2 476.099 181.96C476.659 181.707 477.079 181.24 477.359 180.56C477.639 179.88 477.779 178.907 477.779 177.64C477.779 176.373 477.653 175.393 477.399 174.7C477.146 174.007 476.739 173.52 476.179 173.24C475.633 172.96 474.906 172.82 473.999 172.82H471.299V182.32ZM482.4 172.54V170.74H484.78V172.54H482.4ZM482.58 184V176.18H481.14L481.34 174.52H484.76V184H482.58ZM490.463 184.2C489.81 184.2 489.183 184.153 488.583 184.06C487.996 183.967 487.51 183.853 487.123 183.72V181.88C487.576 182.053 488.076 182.187 488.623 182.28C489.17 182.373 489.69 182.42 490.183 182.42C490.93 182.42 491.463 182.353 491.783 182.22C492.103 182.087 492.263 181.827 492.263 181.44C492.263 181.16 492.163 180.94 491.963 180.78C491.776 180.62 491.49 180.473 491.103 180.34C490.73 180.207 490.25 180.047 489.663 179.86C489.103 179.673 488.616 179.473 488.203 179.26C487.79 179.033 487.47 178.747 487.243 178.4C487.016 178.053 486.903 177.6 486.903 177.04C486.903 176.173 487.216 175.507 487.843 175.04C488.47 174.56 489.476 174.32 490.863 174.32C491.41 174.32 491.93 174.36 492.423 174.44C492.916 174.52 493.336 174.62 493.683 174.74V176.56C493.31 176.413 492.896 176.3 492.443 176.22C492.003 176.14 491.59 176.1 491.203 176.1C490.51 176.1 489.983 176.16 489.623 176.28C489.276 176.4 489.103 176.64 489.103 177C489.103 177.373 489.283 177.64 489.643 177.8C490.016 177.947 490.61 178.153 491.423 178.42C492.17 178.647 492.763 178.887 493.203 179.14C493.643 179.393 493.956 179.7 494.143 180.06C494.343 180.407 494.443 180.86 494.443 181.42C494.443 182.353 494.103 183.053 493.423 183.52C492.743 183.973 491.756 184.2 490.463 184.2ZM500.947 184.2C499.281 184.2 498.021 183.78 497.167 182.94C496.314 182.087 495.887 180.86 495.887 179.26C495.887 177.593 496.354 176.353 497.287 175.54C498.234 174.727 499.494 174.32 501.067 174.32C501.721 174.32 502.267 174.367 502.707 174.46C503.161 174.553 503.594 174.7 504.007 174.9V176.52C503.314 176.173 502.474 176 501.487 176C500.394 176 499.554 176.247 498.967 176.74C498.381 177.22 498.087 178.06 498.087 179.26C498.087 180.393 498.347 181.227 498.867 181.76C499.387 182.28 500.247 182.54 501.447 182.54C502.394 182.54 503.254 182.36 504.027 182V183.66C503.587 183.833 503.114 183.967 502.607 184.06C502.114 184.153 501.561 184.2 500.947 184.2ZM509.18 184.2C508.047 184.2 507.173 183.887 506.56 183.26C505.96 182.633 505.66 181.713 505.66 180.5V174.52H507.84V180.5C507.84 181.207 508.013 181.727 508.36 182.06C508.707 182.393 509.24 182.56 509.96 182.56C510.493 182.56 510.987 182.46 511.44 182.26C511.893 182.06 512.287 181.793 512.62 181.46V174.52H514.78V184H512.8L512.7 183.02C512.273 183.353 511.767 183.633 511.18 183.86C510.593 184.087 509.927 184.2 509.18 184.2ZM520.943 184.2C519.929 184.2 519.169 183.933 518.663 183.4C518.169 182.853 517.923 182.113 517.923 181.18V176.22H516.523V174.52H517.923V172.34L520.083 171.68V174.52H522.603L522.463 176.22H520.083V181.06C520.083 181.607 520.209 181.993 520.463 182.22C520.716 182.433 521.129 182.54 521.703 182.54C522.063 182.54 522.443 182.473 522.843 182.34V183.88C522.323 184.093 521.689 184.2 520.943 184.2ZM525.31 172.54V170.74H527.69V172.54H525.31ZM525.49 184V176.18H524.05L524.25 174.52H527.67V184H525.49ZM530.213 184V174.52H532.213L532.333 175.62C532.786 175.327 533.326 175.06 533.953 174.82C534.58 174.58 535.2 174.413 535.813 174.32V175.98C535.44 176.047 535.033 176.147 534.593 176.28C534.166 176.4 533.76 176.54 533.373 176.7C532.986 176.847 532.66 177 532.393 177.16V184H530.213Z" fill="black"/>
<path d="M469.793 262V249.12H478.773V250.82H471.973V254.72H478.033V256.4H471.973V260.32H478.773V262H469.793ZM480.789 262V252.52H482.789L482.889 253.52C483.316 253.187 483.823 252.907 484.409 252.68C485.009 252.44 485.669 252.32 486.389 252.32C487.616 252.32 488.509 252.607 489.069 253.18C489.629 253.753 489.909 254.647 489.909 255.86V262H487.749V255.96C487.749 255.227 487.596 254.713 487.289 254.42C486.996 254.127 486.436 253.98 485.609 253.98C485.116 253.98 484.629 254.08 484.149 254.28C483.683 254.48 483.289 254.74 482.969 255.06V262H480.789ZM495.512 262.2C494.858 262.2 494.232 262.153 493.632 262.06C493.045 261.967 492.558 261.853 492.172 261.72V259.88C492.625 260.053 493.125 260.187 493.672 260.28C494.218 260.373 494.738 260.42 495.232 260.42C495.978 260.42 496.512 260.353 496.832 260.22C497.152 260.087 497.312 259.827 497.312 259.44C497.312 259.16 497.212 258.94 497.012 258.78C496.825 258.62 496.538 258.473 496.152 258.34C495.778 258.207 495.298 258.047 494.712 257.86C494.152 257.673 493.665 257.473 493.252 257.26C492.838 257.033 492.518 256.747 492.292 256.4C492.065 256.053 491.952 255.6 491.952 255.04C491.952 254.173 492.265 253.507 492.892 253.04C493.518 252.56 494.525 252.32 495.912 252.32C496.458 252.32 496.978 252.36 497.472 252.44C497.965 252.52 498.385 252.62 498.732 252.74V254.56C498.358 254.413 497.945 254.3 497.492 254.22C497.052 254.14 496.638 254.1 496.252 254.1C495.558 254.1 495.032 254.16 494.672 254.28C494.325 254.4 494.152 254.64 494.152 255C494.152 255.373 494.332 255.64 494.692 255.8C495.065 255.947 495.658 256.153 496.472 256.42C497.218 256.647 497.812 256.887 498.252 257.14C498.692 257.393 499.005 257.7 499.192 258.06C499.392 258.407 499.492 258.86 499.492 259.42C499.492 260.353 499.152 261.053 498.472 261.52C497.792 261.973 496.805 262.2 495.512 262.2ZM502.429 250.54V248.74H504.809V250.54H502.429ZM502.609 262V254.18H501.169L501.369 252.52H504.789V262H502.609ZM507.332 262V252.52H509.332L509.432 253.52C509.859 253.187 510.366 252.907 510.952 252.68C511.552 252.44 512.212 252.32 512.932 252.32C514.159 252.32 515.052 252.607 515.612 253.18C516.172 253.753 516.452 254.647 516.452 255.86V262H514.292V255.96C514.292 255.227 514.139 254.713 513.832 254.42C513.539 254.127 512.979 253.98 512.152 253.98C511.659 253.98 511.172 254.08 510.692 254.28C510.226 254.48 509.832 254.74 509.512 255.06V262H507.332ZM521.562 262.2C520.962 262.2 520.402 262.093 519.882 261.88C519.375 261.667 518.968 261.347 518.662 260.92C518.355 260.48 518.202 259.94 518.202 259.3C518.202 258.393 518.508 257.667 519.122 257.12C519.748 256.56 520.708 256.28 522.002 256.28H525.042V255.86C525.042 255.407 524.968 255.047 524.822 254.78C524.688 254.513 524.435 254.32 524.062 254.2C523.702 254.08 523.168 254.02 522.462 254.02C521.342 254.02 520.295 254.187 519.322 254.52V252.9C519.748 252.727 520.268 252.587 520.882 252.48C521.495 252.373 522.155 252.32 522.862 252.32C524.248 252.32 525.302 252.6 526.022 253.16C526.755 253.72 527.122 254.633 527.122 255.9V262H525.262L525.122 261.04C524.735 261.413 524.255 261.7 523.682 261.9C523.122 262.1 522.415 262.2 521.562 262.2ZM522.142 260.64C522.795 260.64 523.362 260.533 523.842 260.32C524.335 260.093 524.735 259.793 525.042 259.42V257.76H522.042C521.402 257.76 520.935 257.887 520.642 258.14C520.362 258.38 520.222 258.753 520.222 259.26C520.222 259.753 520.388 260.107 520.722 260.32C521.055 260.533 521.528 260.64 522.142 260.64ZM529.539 262V252.52H531.539L531.659 253.62C532.113 253.327 532.653 253.06 533.279 252.82C533.906 252.58 534.526 252.413 535.139 252.32V253.98C534.766 254.047 534.359 254.147 533.919 254.28C533.493 254.4 533.086 254.54 532.699 254.7C532.313 254.847 531.986 255 531.719 255.16V262H529.539Z" fill="black"/>
<defs>
<filter id="filter0_d_310_213" x="391" y="1" width="220" height="47" filterUnits="userSpaceOnUse" color-interpolation-filters="sRGB">
<feFlood flood-opacity="0" result="BackgroundImageFix"/>
<feColorMatrix in="SourceAlpha" type="matrix" values="0 0 0 0 0 0 0 0 0 0 0 0 0 0 0 0 0 0 127 0" result="hardAlpha"/>
<feOffset dy="4"/>
<feGaussianBlur stdDeviation="2"/>
<feComposite in2="hardAlpha" operator="out"/>
<feColorMatrix type="matrix" values="0 0 0 0 0 0 0 0 0 0 0 0 0 0 0 0 0 0 0.25 0"/>
<feBlend mode="normal" in2="BackgroundImageFix" result="effect1_dropShadow_310_213"/>
<feBlend mode="normal" in="SourceGraphic" in2="effect1_dropShadow_310_213" result="shape"/>
</filter>
<filter id="filter1_d_310_213" x="324" y="40" width="353" height="47" filterUnits="userSpaceOnUse" color-interpolation-filters="sRGB">
<feFlood flood-opacity="0" result="BackgroundImageFix"/>
<feColorMatrix in="SourceAlpha" type="matrix" values="0 0 0 0 0 0 0 0 0 0 0 0 0 0 0 0 0 0 127 0" result="hardAlpha"/>
<feOffset dy="4"/>
<feGaussianBlur stdDeviation="2"/>
<feComposite in2="hardAlpha" operator="out"/>
<feColorMatrix type="matrix" values="0 0 0 0 0 0 0 0 0 0 0 0 0 0 0 0 0 0 0.25 0"/>
<feBlend mode="normal" in2="BackgroundImageFix" result="effect1_dropShadow_310_213"/>
<feBlend mode="normal" in="SourceGraphic" in2="effect1_dropShadow_310_213" result="shape"/>
</filter>
<filter id="filter2_d_310_213" x="262" y="79" width="479" height="47" filterUnits="userSpaceOnUse" color-interpolation-filters="sRGB">
<feFlood flood-opacity="0" result="BackgroundImageFix"/>
<feColorMatrix in="SourceAlpha" type="matrix" values="0 0 0 0 0 0 0 0 0 0 0 0 0 0 0 0 0 0 127 0" result="hardAlpha"/>
<feOffset dy="4"/>
<feGaussianBlur stdDeviation="2"/>
<feComposite in2="hardAlpha" operator="out"/>
<feColorMatrix type="matrix" values="0 0 0 0 0 0 0 0 0 0 0 0 0 0 0 0 0 0 0.25 0"/>
<feBlend mode="normal" in2="BackgroundImageFix" result="effect1_dropShadow_310_213"/>
<feBlend mode="normal" in="SourceGraphic" in2="effect1_dropShadow_310_213" result="shape"/>
</filter>
<filter id="filter3_d_310_213" x="153" y="157" width="689" height="47" filterUnits="userSpaceOnUse" color-interpolation-filters="sRGB">
<feFlood flood-opacity="0" result="BackgroundImageFix"/>
<feColorMatrix in="SourceAlpha" type="matrix" values="0 0 0 0 0 0 0 0 0 0 0 0 0 0 0 0 0 0 127 0" result="hardAlpha"/>
<feOffset dy="4"/>
<feGaussianBlur stdDeviation="2"/>
<feComposite in2="hardAlpha" operator="out"/>
<feColorMatrix type="matrix" values="0 0 0 0 0 0 0 0 0 0 0 0 0 0 0 0 0 0 0.25 0"/>
<feBlend mode="normal" in2="BackgroundImageFix" result="effect1_dropShadow_310_213"/>
<feBlend mode="normal" in="SourceGraphic" in2="effect1_dropShadow_310_213" result="shape"/>
</filter>
<filter id="filter4_d_310_213" x="105" y="196" width="784" height="47" filterUnits="userSpaceOnUse" color-interpolation-filters="sRGB">
<feFlood flood-opacity="0" result="BackgroundImageFix"/>
<feColorMatrix in="SourceAlpha" type="matrix" values="0 0 0 0 0 0 0 0 0 0 0 0 0 0 0 0 0 0 127 0" result="hardAlpha"/>
<feOffset dy="4"/>
<feGaussianBlur stdDeviation="2"/>
<feComposite in2="hardAlpha" operator="out"/>
<feColorMatrix type="matrix" values="0 0 0 0 0 0 0 0 0 0 0 0 0 0 0 0 0 0 0.25 0"/>
<feBlend mode="normal" in2="BackgroundImageFix" result="effect1_dropShadow_310_213"/>
<feBlend mode="normal" in="SourceGraphic" in2="effect1_dropShadow_310_213" result="shape"/>
</filter>
<filter id="filter5_d_310_213" x="44" y="235" width="900" height="47" filterUnits="userSpaceOnUse" color-interpolation-filters="sRGB">
<feFlood flood-opacity="0" result="BackgroundImageFix"/>
<feColorMatrix in="SourceAlpha" type="matrix" values="0 0 0 0 0 0 0 0 0 0 0 0 0 0 0 0 0 0 127 0" result="hardAlpha"/>
<feOffset dy="4"/>
<feGaussianBlur stdDeviation="2"/>
<feComposite in2="hardAlpha" operator="out"/>
<feColorMatrix type="matrix" values="0 0 0 0 0 0 0 0 0 0 0 0 0 0 0 0 0 0 0.25 0"/>
<feBlend mode="normal" in2="BackgroundImageFix" result="effect1_dropShadow_310_213"/>
<feBlend mode="normal" in="SourceGraphic" in2="effect1_dropShadow_310_213" result="shape"/>
</filter>
<linearGradient id="paint0_linear_310_213" x1="395" y1="20.5" x2="607" y2="20.5" gradientUnits="userSpaceOnUse">
<stop stop-color="#00D0FF"/>
<stop offset="1" stop-color="#007D99"/>
</linearGradient>
<linearGradient id="paint1_linear_310_213" x1="328" y1="59.5" x2="673" y2="59.5" gradientUnits="userSpaceOnUse">
<stop stop-color="#08111B"/>
<stop offset="1" stop-color="#0E2238"/>
</linearGradient>
<linearGradient id="paint2_linear_310_213" x1="266" y1="98.5" x2="737" y2="98.5" gradientUnits="userSpaceOnUse">
<stop stop-color="#00D0FF"/>
<stop offset="1" stop-color="#007D99"/>
</linearGradient>
<linearGradient id="paint3_linear_310_213" x1="210" y1="137.5" x2="788" y2="137.5" gradientUnits="userSpaceOnUse">
<stop stop-color="#08111B"/>
<stop offset="1" stop-color="#0E2339"/>
</linearGradient>
<linearGradient id="paint4_linear_310_213" x1="157" y1="176.5" x2="838" y2="176.5" gradientUnits="userSpaceOnUse">
<stop stop-color="#00D0FF"/>
<stop offset="1" stop-color="#007D99"/>
</linearGradient>
<linearGradient id="paint5_linear_310_213" x1="109" y1="215.5" x2="885" y2="215.5" gradientUnits="userSpaceOnUse">
<stop stop-color="#08111B"/>
<stop offset="1" stop-color="#0E2339"/>
</linearGradient>
<linearGradient id="paint6_linear_310_213" x1="48" y1="254.5" x2="940" y2="254.5" gradientUnits="userSpaceOnUse">
<stop stop-color="#00D0FF"/>
<stop offset="1" stop-color="#007D99"/>
</linearGradient>
<linearGradient id="paint7_linear_310_213" x1="927.25" y1="156" x2="927.25" y2="275" gradientUnits="userSpaceOnUse">
<stop stop-color="#00D0FF"/>
<stop offset="1" stop-color="#06313A"/>
</linearGradient>
<linearGradient id="paint8_linear_310_213" x1="740.25" y1="1" x2="740.25" y2="149" gradientUnits="userSpaceOnUse">
<stop stop-color="#00D0FF"/>
<stop offset="1" stop-color="#07272F"/>
</linearGradient>
</defs>
</svg>
